<svg xmlns="http://www.w3.org/2000/svg" xmlns:xlink="http://www.w3.org/1999/xlink" viewBox="0 0 2475 1650"><defs><style>.cls-1{mask:url(#mask);filter:url(#luminosity-noclip-4);}.cls-2,.cls-4,.cls-6{mix-blend-mode:multiply;}.cls-2{fill:url(#linear-gradient);}.cls-3{mask:url(#mask-2);filter:url(#luminosity-noclip-5);}.cls-4{fill:url(#linear-gradient-2);}.cls-5{mask:url(#mask-3);filter:url(#luminosity-noclip-6);}.cls-6{fill:url(#linear-gradient-3);}.cls-19,.cls-59,.cls-7,.cls-86,.cls-99{fill:#fff;}.cls-8{fill:url(#linear-gradient-4);}.cls-9{fill:#91b3fa;}.cls-10{fill:#bdd0fb;}.cls-11{fill:#7d97f4;}.cls-12{fill:url(#linear-gradient-5);}.cls-13{fill:url(#linear-gradient-6);}.cls-14{fill:url(#linear-gradient-7);}.cls-15{fill:url(#linear-gradient-8);}.cls-16{fill:url(#linear-gradient-9);}.cls-17{fill:url(#linear-gradient-10);}.cls-18{fill:url(#linear-gradient-11);}.cls-19,.cls-20{opacity:0.6;}.cls-21{fill:url(#linear-gradient-12);}.cls-22{fill:url(#linear-gradient-13);}.cls-23{fill:url(#linear-gradient-14);}.cls-24{fill:url(#linear-gradient-15);}.cls-25{fill:url(#linear-gradient-16);}.cls-26{fill:url(#linear-gradient-17);}.cls-27{fill:url(#linear-gradient-18);}.cls-28{fill:url(#linear-gradient-19);}.cls-29{fill:url(#linear-gradient-20);}.cls-30{fill:url(#linear-gradient-21);}.cls-31{fill:url(#linear-gradient-22);}.cls-32{fill:url(#linear-gradient-23);}.cls-33{fill:url(#linear-gradient-24);}.cls-34{fill:url(#linear-gradient-25);}.cls-35{fill:url(#linear-gradient-26);}.cls-36{fill:url(#linear-gradient-27);}.cls-37{fill:url(#linear-gradient-28);}.cls-38{fill:url(#linear-gradient-29);}.cls-39{fill:url(#linear-gradient-30);}.cls-40{fill:url(#linear-gradient-31);}.cls-41{fill:url(#linear-gradient-32);}.cls-42{fill:url(#linear-gradient-33);}.cls-43{fill:url(#linear-gradient-34);}.cls-44{fill:url(#linear-gradient-35);}.cls-45{fill:url(#linear-gradient-36);}.cls-46{fill:url(#linear-gradient-37);}.cls-47{fill:url(#linear-gradient-38);}.cls-48{fill:url(#linear-gradient-39);}.cls-49{fill:url(#linear-gradient-40);}.cls-50{fill:url(#linear-gradient-41);}.cls-51{fill:url(#linear-gradient-42);}.cls-52{fill:url(#linear-gradient-43);}.cls-53{fill:url(#linear-gradient-44);}.cls-54{fill:url(#linear-gradient-45);}.cls-55{fill:url(#linear-gradient-46);}.cls-56{fill:url(#linear-gradient-47);}.cls-57{fill:url(#linear-gradient-48);}.cls-58{fill:url(#linear-gradient-49);}.cls-59{opacity:0.72;}.cls-60{fill:url(#linear-gradient-50);}.cls-61{fill:url(#linear-gradient-51);}.cls-62{fill:url(#linear-gradient-52);}.cls-63{fill:url(#linear-gradient-53);}.cls-64{fill:url(#linear-gradient-54);}.cls-65{fill:url(#linear-gradient-55);}.cls-66{fill:url(#linear-gradient-56);}.cls-67{mask:url(#mask-4);}.cls-68,.cls-73,.cls-78{opacity:0.53;}.cls-68{fill:url(#linear-gradient-57);}.cls-69{fill:url(#linear-gradient-58);}.cls-70{fill:url(#linear-gradient-59);}.cls-71{fill:url(#linear-gradient-60);}.cls-72{mask:url(#mask-5);}.cls-73{fill:url(#linear-gradient-61);}.cls-74{fill:url(#linear-gradient-62);}.cls-75{fill:url(#linear-gradient-63);}.cls-76{fill:url(#linear-gradient-64);}.cls-77{mask:url(#mask-6);}.cls-78{fill:url(#linear-gradient-65);}.cls-79{fill:url(#linear-gradient-66);}.cls-80{fill:url(#linear-gradient-67);}.cls-81{fill:url(#linear-gradient-68);}.cls-82{fill:url(#linear-gradient-69);}.cls-83{fill:url(#linear-gradient-70);}.cls-84{fill:url(#linear-gradient-71);}.cls-85{fill:url(#linear-gradient-72);}.cls-86{opacity:0.66;}.cls-87{fill:url(#linear-gradient-73);}.cls-88{fill:url(#linear-gradient-74);}.cls-89{fill:url(#linear-gradient-75);}.cls-90{fill:url(#linear-gradient-76);}.cls-91{fill:url(#linear-gradient-77);}.cls-92{fill:url(#linear-gradient-78);}.cls-93{fill:url(#linear-gradient-79);}.cls-94{fill:url(#linear-gradient-80);}.cls-95{fill:url(#linear-gradient-81);}.cls-96{fill:url(#linear-gradient-82);}.cls-97{fill:url(#linear-gradient-83);}.cls-98{fill:url(#linear-gradient-84);}.cls-99{opacity:0.42;}.cls-100{filter:url(#luminosity-noclip-3);}.cls-101{filter:url(#luminosity-noclip-2);}.cls-102{filter:url(#luminosity-noclip);}</style><filter id="luminosity-noclip" x="409.04" y="-9017" width="22.61" height="32766" filterUnits="userSpaceOnUse" color-interpolation-filters="sRGB"><feFlood flood-color="#fff" result="bg"/><feBlend in="SourceGraphic" in2="bg"/></filter><mask id="mask" x="409.04" y="-9017" width="22.61" height="32766" maskUnits="userSpaceOnUse"><g class="cls-102"/></mask><linearGradient id="linear-gradient" x1="424.44" y1="520.44" x2="402.62" y2="665.84" gradientUnits="userSpaceOnUse"><stop offset="0" stop-color="#fff"/><stop offset="1"/></linearGradient><filter id="luminosity-noclip-2" x="307.01" y="-9017" width="22.62" height="32766" filterUnits="userSpaceOnUse" color-interpolation-filters="sRGB"><feFlood flood-color="#fff" result="bg"/><feBlend in="SourceGraphic" in2="bg"/></filter><mask id="mask-2" x="307.01" y="-9017" width="22.62" height="32766" maskUnits="userSpaceOnUse"><g class="cls-101"/></mask><linearGradient id="linear-gradient-2" x1="325.03" y1="505.52" x2="303.21" y2="650.93" xlink:href="#linear-gradient"/><filter id="luminosity-noclip-3" x="359.02" y="-9017" width="22.61" height="32766" filterUnits="userSpaceOnUse" color-interpolation-filters="sRGB"><feFlood flood-color="#fff" result="bg"/><feBlend in="SourceGraphic" in2="bg"/></filter><mask id="mask-3" x="359.02" y="-9017" width="22.61" height="32766" maskUnits="userSpaceOnUse"><g class="cls-100"/></mask><linearGradient id="linear-gradient-3" x1="375.18" y1="513.05" x2="353.37" y2="658.46" xlink:href="#linear-gradient"/><linearGradient id="linear-gradient-4" x1="-1483.34" y1="856.64" x2="504.92" y2="856.64" gradientTransform="matrix(-1, 0, 0, 1, 702.65, 0)" gradientUnits="userSpaceOnUse"><stop offset="0" stop-color="#dae3fe"/><stop offset="1" stop-color="#e9effd"/></linearGradient><linearGradient id="linear-gradient-5" x1="1311.42" y1="101.45" x2="1327.42" y2="637.45" gradientUnits="userSpaceOnUse"><stop offset="0" stop-color="#09005d"/><stop offset="1" stop-color="#1a0f91"/></linearGradient><linearGradient id="linear-gradient-6" x1="1333.13" y1="203.61" x2="1363.12" y2="1559.34" gradientUnits="userSpaceOnUse"><stop offset="0" stop-color="#4042e2"/><stop offset="1" stop-color="#4f52ff"/></linearGradient><linearGradient id="linear-gradient-7" x1="1160.84" y1="255.2" x2="1057.6" y2="749.92" gradientUnits="userSpaceOnUse"><stop offset="0" stop-color="#e1473d"/><stop offset="1" stop-color="#e9605a"/></linearGradient><linearGradient id="linear-gradient-8" x1="1256.97" y1="281.75" x2="1153.78" y2="776.2" xlink:href="#linear-gradient-7"/><linearGradient id="linear-gradient-9" x1="1393.9" y1="314.78" x2="1290.65" y2="809.5" xlink:href="#linear-gradient-7"/><linearGradient id="linear-gradient-10" x1="1517.09" y1="349.54" x2="1414.89" y2="839.23" xlink:href="#linear-gradient-7"/><linearGradient id="linear-gradient-11" x1="1637.01" y1="377.98" x2="1533.53" y2="873.8" xlink:href="#linear-gradient-7"/><linearGradient id="linear-gradient-12" x1="1258.34" y1="603.69" x2="918.38" y2="1183.92" gradientUnits="userSpaceOnUse"><stop offset="0" stop-color="#fe7062"/><stop offset="1" stop-color="#ff928e"/></linearGradient><linearGradient id="linear-gradient-13" x1="1320.58" y1="640.15" x2="980.62" y2="1220.38" xlink:href="#linear-gradient-12"/><linearGradient id="linear-gradient-14" x1="1372.91" y1="783.19" x2="925.59" y2="1406.87" xlink:href="#linear-gradient-12"/><linearGradient id="linear-gradient-15" x1="1445.05" y1="713.08" x2="1105.09" y2="1293.31" xlink:href="#linear-gradient-12"/><linearGradient id="linear-gradient-16" x1="1357.36" y1="226.15" x2="1341.36" y2="428.15" xlink:href="#linear-gradient-5"/><linearGradient id="linear-gradient-17" x1="1359.06" y1="226.28" x2="1343.06" y2="428.28" xlink:href="#linear-gradient-5"/><linearGradient id="linear-gradient-18" x1="1405.23" y1="-18.47" x2="1365.23" y2="265.53" xlink:href="#linear-gradient-5"/><linearGradient id="linear-gradient-19" x1="1910.26" y1="853.89" x2="1966.64" y2="995.31" xlink:href="#linear-gradient-5"/><linearGradient id="linear-gradient-20" x1="1834.83" y1="933.67" x2="1903.39" y2="1089.66" gradientUnits="userSpaceOnUse"><stop offset="0" stop-color="#a22b25"/><stop offset="1" stop-color="#c0423c"/></linearGradient><linearGradient id="linear-gradient-21" x1="2047.05" y1="1475.85" x2="2078.52" y2="1475.85" xlink:href="#linear-gradient-6"/><linearGradient id="linear-gradient-22" x1="1914.09" y1="1599.94" x2="1959.37" y2="1070.69" xlink:href="#linear-gradient-20"/><linearGradient id="linear-gradient-23" x1="1900.86" y1="1470.1" x2="1951.77" y2="1470.1" xlink:href="#linear-gradient-6"/><linearGradient id="linear-gradient-24" x1="2005.18" y1="1607.81" x2="2050.47" y2="1078.42" xlink:href="#linear-gradient-20"/><linearGradient id="linear-gradient-25" x1="1915.2" y1="1066.22" x2="1937.85" y2="1276.3" xlink:href="#linear-gradient-12"/><linearGradient id="linear-gradient-26" x1="1901.22" y1="1199.72" x2="2103.36" y2="1366.57" xlink:href="#linear-gradient-6"/><linearGradient id="linear-gradient-27" x1="1909.12" y1="1078.25" x2="1917.63" y2="1016.02" xlink:href="#linear-gradient-20"/><linearGradient id="linear-gradient-28" x1="1944.18" y1="1108.58" x2="2000.69" y2="1108.58" xlink:href="#linear-gradient-20"/><linearGradient id="linear-gradient-29" x1="1887.65" y1="998.02" x2="1961.87" y2="865.93" xlink:href="#linear-gradient-20"/><linearGradient id="linear-gradient-30" x1="1903.61" y1="882.99" x2="1940.72" y2="976.08" xlink:href="#linear-gradient-5"/><linearGradient id="linear-gradient-31" x1="1903.45" y1="1006.9" x2="1977.67" y2="874.81" xlink:href="#linear-gradient-20"/><linearGradient id="linear-gradient-32" x1="1821.29" y1="939.63" x2="1889.84" y2="1095.61" xlink:href="#linear-gradient-20"/><linearGradient id="linear-gradient-33" x1="1797.06" y1="896.42" x2="1799.06" y2="991.42" xlink:href="#linear-gradient-20"/><linearGradient id="linear-gradient-34" x1="1370.4" y1="1198.78" x2="1407.54" y2="1292.94" xlink:href="#linear-gradient-7"/><linearGradient id="linear-gradient-35" x1="1464.91" y1="1178.32" x2="1503.71" y2="1276.68" xlink:href="#linear-gradient-7"/><linearGradient id="linear-gradient-36" x1="1318.65" y1="1378.49" x2="1549.5" y2="1378.49" xlink:href="#linear-gradient-12"/><linearGradient id="linear-gradient-37" x1="1418.32" y1="1339.3" x2="1508.43" y2="1567.76" xlink:href="#linear-gradient-7"/><linearGradient id="linear-gradient-38" x1="1571.26" y1="746" x2="1571.26" y2="1118" xlink:href="#linear-gradient-5"/><linearGradient id="linear-gradient-39" x1="1671.29" y1="746" x2="1671.29" y2="1118" xlink:href="#linear-gradient-5"/><linearGradient id="linear-gradient-40" x1="1614.24" y1="1366.35" x2="1701.93" y2="1588.66" xlink:href="#linear-gradient-6"/><linearGradient id="linear-gradient-41" x1="1620.82" y1="746" x2="1620.82" y2="1118" xlink:href="#linear-gradient-5"/><linearGradient id="linear-gradient-42" x1="721.42" y1="776.23" x2="234.05" y2="1250.51" xlink:href="#linear-gradient-6"/><linearGradient id="linear-gradient-43" x1="329.05" y1="1031.86" x2="602" y2="1031.86" gradientTransform="matrix(1, 0, 0, 1, 0, 0)" xlink:href="#linear-gradient-4"/><linearGradient id="linear-gradient-44" x1="-4152.04" y1="4022.25" x2="-4416.12" y2="4369.1" gradientTransform="matrix(-0.22, -0.98, 0.98, -0.22, -4502.96, -2236.95)" xlink:href="#linear-gradient-7"/><linearGradient id="linear-gradient-45" x1="-4383.12" y1="4339.24" x2="-4188.83" y2="4052.59" gradientTransform="matrix(-0.22, -0.98, 0.98, -0.22, -4502.96, -2236.95)" xlink:href="#linear-gradient-12"/><linearGradient id="linear-gradient-46" x1="77.47" y1="1152.31" x2="67.47" y2="1238.31" gradientTransform="matrix(0.98, -0.22, 0.22, 0.98, -5.06, -506.99)" xlink:href="#linear-gradient-7"/><linearGradient id="linear-gradient-47" x1="122.14" y1="1157.5" x2="112.14" y2="1243.5" gradientTransform="matrix(0.98, -0.22, 0.22, 0.98, -5.06, -506.99)" xlink:href="#linear-gradient-7"/><linearGradient id="linear-gradient-48" x1="182.07" y1="1164.47" x2="172.07" y2="1250.47" gradientTransform="matrix(0.98, -0.22, 0.22, 0.98, -5.06, -506.99)" xlink:href="#linear-gradient-7"/><linearGradient id="linear-gradient-49" x1="241.63" y1="1171.4" x2="231.63" y2="1257.4" gradientTransform="matrix(0.98, -0.22, 0.22, 0.98, -5.06, -506.99)" xlink:href="#linear-gradient-7"/><linearGradient id="linear-gradient-50" x1="176.73" y1="1252.18" x2="171.73" y2="1365.18" gradientTransform="matrix(0.98, -0.22, 0.22, 0.98, -5.06, -506.99)" xlink:href="#linear-gradient-7"/><linearGradient id="linear-gradient-51" x1="176.72" y1="1252.18" x2="171.72" y2="1365.18" gradientTransform="matrix(0.98, -0.22, 0.22, 0.98, -5.06, -506.99)" xlink:href="#linear-gradient-7"/><linearGradient id="linear-gradient-52" x1="101.69" y1="1248.86" x2="96.69" y2="1361.86" gradientTransform="matrix(0.98, -0.22, 0.22, 0.98, -5.06, -506.99)" xlink:href="#linear-gradient-7"/><linearGradient id="linear-gradient-53" x1="636.68" y1="427.41" x2="149.3" y2="901.68" xlink:href="#linear-gradient-6"/><linearGradient id="linear-gradient-54" x1="244.31" y1="683.03" x2="517.25" y2="683.03" gradientTransform="matrix(1, 0, 0, 1, 0, 0)" xlink:href="#linear-gradient-4"/><linearGradient id="linear-gradient-55" x1="426.51" y1="625" x2="426.51" y2="567" xlink:href="#linear-gradient-12"/><linearGradient id="linear-gradient-56" x1="420.41" y1="545.55" x2="419.41" y2="511.55" gradientUnits="userSpaceOnUse"><stop offset="0" stop-color="#ff928e"/><stop offset="1" stop-color="#feb3b1"/></linearGradient><filter id="luminosity-noclip-4" x="409.04" y="523.44" width="22.61" height="33.26" filterUnits="userSpaceOnUse" color-interpolation-filters="sRGB"><feFlood flood-color="#fff" result="bg"/><feBlend in="SourceGraphic" in2="bg"/></filter><mask id="mask-4" x="409.04" y="523.44" width="22.61" height="33.26" maskUnits="userSpaceOnUse"><g class="cls-1"><path class="cls-2" d="M420.69,523.89a1.12,1.12,0,0,0-1.94.26,176.34,176.34,0,0,1-8.05,17.59c-3.7,6.47-1.78,16.42,11.56,14.79C441.85,554.13,425.46,530.28,420.69,523.89Z"/></g></mask><linearGradient id="linear-gradient-57" x1="424.44" y1="520.44" x2="402.62" y2="665.84" gradientUnits="userSpaceOnUse"><stop offset="0" stop-color="#fff"/><stop offset="1" stop-color="#fff"/></linearGradient><linearGradient id="linear-gradient-58" x1="418.93" y1="559.39" x2="424.06" y2="559.39" xlink:href="#linear-gradient-7"/><linearGradient id="linear-gradient-59" x1="315.55" y1="625" x2="315.55" y2="567" xlink:href="#linear-gradient-12"/><linearGradient id="linear-gradient-60" x1="318.19" y1="548.55" x2="317.19" y2="514.55" xlink:href="#linear-gradient-56"/><filter id="luminosity-noclip-5" x="307.01" y="526.28" width="22.62" height="33.23" filterUnits="userSpaceOnUse" color-interpolation-filters="sRGB"><feFlood flood-color="#fff" result="bg"/><feBlend in="SourceGraphic" in2="bg"/></filter><mask id="mask-5" x="307.01" y="526.28" width="22.62" height="33.23" maskUnits="userSpaceOnUse"><g class="cls-3"><path class="cls-4" d="M316.87,526.77a1.12,1.12,0,0,1,1.94.17,177.77,177.77,0,0,0,8.87,17.19c4,6.29,2.54,16.32-10.85,15.32C297.14,558,312.4,533.38,316.87,526.77Z"/></g></mask><linearGradient id="linear-gradient-61" x1="325.03" y1="505.52" x2="303.21" y2="650.93" xlink:href="#linear-gradient-57"/><linearGradient id="linear-gradient-62" x1="315.51" y1="562.25" x2="319.89" y2="562.25" xlink:href="#linear-gradient-7"/><linearGradient id="linear-gradient-63" x1="374.59" y1="625" x2="374.59" y2="567" xlink:href="#linear-gradient-12"/><linearGradient id="linear-gradient-64" x1="370.5" y1="547.01" x2="369.5" y2="513.01" xlink:href="#linear-gradient-56"/><filter id="luminosity-noclip-6" x="359.02" y="521.17" width="22.61" height="33.26" filterUnits="userSpaceOnUse" color-interpolation-filters="sRGB"><feFlood flood-color="#fff" result="bg"/><feBlend in="SourceGraphic" in2="bg"/></filter><mask id="mask-6" x="359.02" y="521.17" width="22.61" height="33.26" maskUnits="userSpaceOnUse"><g class="cls-5"><path class="cls-6" d="M370.67,521.62a1.12,1.12,0,0,0-1.94.25,175.31,175.31,0,0,1-8.05,17.59c-3.7,6.47-1.78,16.43,11.55,14.79C391.83,551.85,375.44,528,370.67,521.62Z"/></g></mask><linearGradient id="linear-gradient-65" x1="375.18" y1="513.05" x2="353.37" y2="658.46" xlink:href="#linear-gradient-57"/><linearGradient id="linear-gradient-66" x1="368.91" y1="557.11" x2="374.04" y2="557.11" xlink:href="#linear-gradient-7"/><linearGradient id="linear-gradient-67" x1="410.86" y1="612.85" x2="298.86" y2="932.85" xlink:href="#linear-gradient-12"/><linearGradient id="linear-gradient-68" x1="441.06" y1="502.86" x2="405.06" y2="588.86" xlink:href="#linear-gradient-7"/><linearGradient id="linear-gradient-69" x1="932.3" y1="190.91" x2="444.92" y2="665.19" xlink:href="#linear-gradient-6"/><linearGradient id="linear-gradient-70" x1="539.92" y1="446.54" x2="812.87" y2="446.54" gradientTransform="matrix(1, 0, 0, 1, 0, 0)" xlink:href="#linear-gradient-4"/><linearGradient id="linear-gradient-71" x1="677.37" y1="596.11" x2="779.3" y2="477.8" gradientTransform="translate(857.15 -436.07) rotate(63.43)" xlink:href="#linear-gradient-7"/><linearGradient id="linear-gradient-72" x1="871.3" y1="291.1" x2="749.8" y2="540.09" gradientTransform="translate(565.02 -413.26) rotate(45)" xlink:href="#linear-gradient-12"/><linearGradient id="linear-gradient-73" x1="856.52" y1="328.7" x2="754.53" y2="538.69" xlink:href="#linear-gradient-12"/><linearGradient id="linear-gradient-74" x1="603.42" y1="596.11" x2="705.35" y2="477.8" gradientTransform="translate(875.92 -360.08) rotate(67.5)" xlink:href="#linear-gradient-7"/><linearGradient id="linear-gradient-75" x1="804.82" y1="335.09" x2="678.83" y2="516.58" gradientTransform="translate(543.36 -360.97) rotate(45)" xlink:href="#linear-gradient-12"/><linearGradient id="linear-gradient-76" x1="767.17" y1="386.11" x2="662.18" y2="555.6" xlink:href="#linear-gradient-12"/><linearGradient id="linear-gradient-77" x1="429.32" y1="622.93" x2="592.38" y2="433.66" gradientTransform="translate(478.41 -295.31) rotate(45)" xlink:href="#linear-gradient-7"/><linearGradient id="linear-gradient-78" x1="534.27" y1="523.09" x2="693.27" y2="281.6" gradientTransform="translate(478.41 -295.31) rotate(45)" xlink:href="#linear-gradient-12"/><linearGradient id="linear-gradient-79" x1="666.45" y1="224.43" x2="586.95" y2="473.42" xlink:href="#linear-gradient-12"/><linearGradient id="linear-gradient-80" x1="918.5" y1="1067.91" x2="431.12" y2="1542.19" xlink:href="#linear-gradient-6"/><linearGradient id="linear-gradient-81" x1="526.13" y1="1323.54" x2="799.07" y2="1323.54" gradientTransform="matrix(1, 0, 0, 1, 0, 0)" xlink:href="#linear-gradient-4"/><linearGradient id="linear-gradient-82" x1="652.15" y1="1363.19" x2="674.81" y2="1097.19" xlink:href="#linear-gradient-7"/><linearGradient id="linear-gradient-83" x1="721.23" y1="1088.56" x2="941.23" y2="496.56" xlink:href="#linear-gradient-12"/><linearGradient id="linear-gradient-84" x1="658.25" y1="996.64" x2="639.25" y2="1112.64" xlink:href="#linear-gradient-56"/></defs><g id="Background"><rect class="cls-7" width="2475" height="1650"/></g><g id="Illustration"><path class="cls-8" d="M1668.25,299.18C1785,439,2190.22,283.66,2186,541.48c-5,301.89-403.23,390.71-274.28,602.89s-36.4,374.78-554.59,370.3S28.22,1319.12,229.06,1029.9s67-304.06,57.22-431.88,91.81-408.2,493.14-174.38S1372.57-54.94,1668.25,299.18Z"/><path class="cls-9" d="M1902.44,1114.62a110.43,110.43,0,0,0,48.29-99.37c-3-42.08,3.92-89,21.89-135.58,47.16-122.14,152.81-195.12,236-163S2321,873.81,2273.79,996a339.92,339.92,0,0,1-33.48,65.16,108.65,108.65,0,0,0-10.73,100.15,139.3,139.3,0,0,1-103.26,188.23,109.28,109.28,0,0,0-67.42,42.27c-46.4,62.75-116.14,93.37-175.28,70.53-75.8-29.26-105.49-135.24-66.31-236.7C1836,1177.22,1866.94,1138.61,1902.44,1114.62Z"/><path class="cls-9" d="M1873.08,1467.24a5.37,5.37,0,0,0,5.57-1.69c69.69-81.68,140.73-234.41,188.06-348.15,51.19-123,86.45-228.22,86.8-229.26a5.38,5.38,0,1,0-10.21-3.42c-1.4,4.18-141,419.35-272.84,573.84a5.38,5.38,0,0,0,.6,7.59A5.46,5.46,0,0,0,1873.08,1467.24Z"/><path class="cls-10" d="M2107.72,1015.63c28-79.5,20.9-162.61-13.18-231.51-30.47-61.59-33.52-127.75-7-184a196.93,196.93,0,0,0,7.52-18.35c33.71-95.61-11.84-198.81-101.75-230.51s-190.11,20.11-223.81,115.72a193.61,193.61,0,0,0-11,58.92c-1.78,62.25-30.59,119-83.12,157.4a299.23,299.23,0,0,0-105.63,142.68c-31.34,88.9-18.73,182.31,26.37,255.32,17.06,27.62,28.51,57,33.46,86.65a141.92,141.92,0,0,0,242.76,74.38c21.07-22.21,47.68-40,77.67-53.55C2020.74,1156.71,2079.38,1096,2107.72,1015.63Z"/><path class="cls-9" d="M1988.9,464c-10.54,67.33-23.7,134-37.7,200.49-3.5,16.62-7.32,33.15-11.07,49.71L1934.49,739l-5.89,24.76c-4,16.48-7.73,33-12,49.46l-12.7,49.26c-9,32.69-17.63,65.48-27.36,97.94-4.84,16.24-9.29,32.6-14.53,48.71l-15.46,48.41c-21.42,64.27-44.86,127.9-72.26,189.94l-3.37-1.35,18.28-47.33,4.6-11.81,4.23-12,8.41-23.93,8.46-23.9c2.84-8,5.31-16.06,8-24.08,5.21-16.08,10.58-32.11,15.66-48.24,19.82-64.69,38.56-129.72,55.65-195.25,8.24-32.86,16.82-65.62,24.78-98.56l6-24.68,5.79-24.75c3.88-16.5,7.75-33,11.42-49.56q11.54-49.51,22.16-99.3c7.28-33.13,14.18-66.37,20.95-99.63Z"/><path class="cls-9" d="M749.9,820.1c8.53-28.42,13.25-57.51,10.63-88-6.6-76.72-61.7-139.66-104.38-199.89-39.23-55.36-75.43-141.35,26.31-149.2C763.52,376.82,870.2,441.8,894,523.31c28.19,96.47-.22,228.19,70.69,308.7,99.19,112.62,152,74.93,185.24,286.09,14.19,90.23-28,147.86-80.9,184.27a242.5,242.5,0,0,1-277-1.41c-73.27-51.54-125-134.08-126.18-224.92C664.7,984.3,724.36,905.2,749.9,820.1Z"/><path class="cls-11" d="M923.4,1488.59h-.27a3,3,0,0,1-2.68-3.21c18.48-205.9,17.29-389.72-3.53-546.34C900.27,813.79,871.1,705.58,830.23,617.4,760.72,467.44,680.34,427,679.54,426.63a3,3,0,1,1,2.58-5.32c.84.4,21,10.33,50.11,39.17,26.71,26.48,66.26,74.63,103,153.69,41.23,88.69,70.65,197.5,87.44,323.38,21,157.21,22.2,341.7,3.65,548.35A2.94,2.94,0,0,1,923.4,1488.59Z"/><path class="cls-10" d="M635.12,610a34,34,0,0,1,12.51-2.84c25.5-1.06,39.94,23.73,50.55,43.23,9.08,16.69,19.88,37,19.17,56.73-.76,21.35-20.1,41.7-39.37,23.18-21.91-21.05-54.9-53.47-60.05-85.12C615.37,629.47,622.28,615.78,635.12,610Z"/><path class="cls-10" d="M518.5,1162.77c-20.86-65.88-8.51-147.22-7.49-220.51.53-38.75-2.36-76.67-14.4-113.73-12-36.85-36.16-74.94-25.71-115.17,21.07-81.06,104.94-58.87,158.85-8.82C692.31,762.62,723.6,868.68,756.52,949c19.84,48.39,45.94,97.13,60.29,147.38,23.78,83.22,13.86,145.16-20.48,191.34a124.37,124.37,0,0,1-142.81,42.49C606.72,1313,552.15,1269,518.5,1162.77Z"/><path class="cls-9" d="M746.78,1448.05h0a3,3,0,0,1-2.93-3c0-1,.88-106.27-21-247.94-20.13-130.66-64.24-319.93-160-479.6a3,3,0,1,1,5.07-3c96.3,160.52,140.6,350.63,160.81,481.85,21.9,142.12,21,247.74,21,248.79A3,3,0,0,1,746.78,1448.05Z"/><path class="cls-12" d="M955,407.91h768a79.57,79.57,0,0,1,79.46,75.52l46.17,945.18a58.67,58.67,0,0,1-57.53,61.65l-880.17,16a55.68,55.68,0,0,1-56.7-55.68l10.51-952.35A90.31,90.31,0,0,1,955,407.91Z"/><path class="cls-10" d="M1039.51,1487.2h0L941,1485.92a60.6,60.6,0,0,1-59.59-60.37V1276.86a2,2,0,0,1,3.94,0v148.69A56.65,56.65,0,0,0,941.05,1482l98.48,1.27a2,2,0,0,1,0,4Z"/><path class="cls-10" d="M883.37,1232.77a2,2,0,0,1-2-2v-24.08a2,2,0,0,1,3.94,0v24.08A2,2,0,0,1,883.37,1232.77Z"/><path class="cls-13" d="M957.35,398.89c104.87,14.22,465.49,58.21,763.65,35.32a24.25,24.25,0,0,1,26.12,22.87l48.93,950.15a27.92,27.92,0,0,1-26.23,29.36c-125.4,7.42-641.84,36.11-826,16.81A22.11,22.11,0,0,1,924,1431.52l3.6-1006.47A26.24,26.24,0,0,1,957.35,398.89Z"/><path class="cls-10" d="M968.58,427.9c100.92,13.69,448,56,734.9,34a23.35,23.35,0,0,1,25.14,22l46.68,908a26.85,26.85,0,0,1-25.23,28.25c-120.68,7.14-617.67,34.75-794.94,16.18a21.29,21.29,0,0,1-19-21.06L940,453.08A25.24,25.24,0,0,1,968.58,427.9Z"/><path class="cls-14" d="M1113.76,734H1045c-4.75,0-8.6-4.76-8.6-10.63V567.63c0-5.87,3.85-10.63,8.6-10.63h65.46c4.75,0,8.6,4.76,8.6,10.63v11.2c0,5.87-3.85,10.63-8.6,10.63h-41.78v39.38H1107c4.75,0,8.6,4.76,8.6,10.62v11.09c0,5.87-3.85,10.63-8.6,10.63h-38.28v40.48h45.07c4.76,0,8.61,4.76,8.61,10.63v11.08C1122.37,729.24,1118.52,734,1113.76,734Z"/><path class="cls-15" d="M1260.78,571.09l-43.45,155.74c-1.2,4.29-4.47,7.17-8.14,7.17h-24.28c-3.69,0-7-2.9-8.15-7.2l-42.92-155.75c-1.9-6.89,2.25-14,8.15-14h16.36c3.8,0,7.15,3.08,8.24,7.58l28.05,115.6a107.46,107.46,0,0,1,2.9,17.65h.6a119.52,119.52,0,0,1,3.1-18.14l27.85-115.1c1.09-4.51,4.44-7.59,8.24-7.59h15.31C1258.55,557,1262.7,564.19,1260.78,571.09Z"/><path class="cls-16" d="M1359.26,734h-68.75c-4.76,0-8.61-4.76-8.61-10.63V567.63c0-5.87,3.85-10.63,8.61-10.63H1356c4.75,0,8.6,4.76,8.6,10.63v11.2c0,5.87-3.85,10.63-8.6,10.63h-41.77v39.38h38.27c4.75,0,8.61,4.76,8.61,10.62v11.09c0,5.87-3.86,10.63-8.61,10.63h-38.27v40.48h45.07c4.75,0,8.6,4.76,8.6,10.63v11.08C1367.86,729.24,1364,734,1359.26,734Z"/><path class="cls-17" d="M1511.19,734h-19.33a8.33,8.33,0,0,1-7.2-4.8l-56.52-106.41q-5.21-9.75-7.2-14.69h-.4q.8,9.38.8,28.64v86.63c0,5.87-3.85,10.63-8.61,10.63h-13.27c-4.75,0-8.61-4.76-8.61-10.63V567.63c0-5.87,3.86-10.63,8.61-10.63H1421a8.34,8.34,0,0,1,7.21,4.82l54.33,102.94q3.9,7.28,7.2,14.44h.4q-.81-6.18-.8-24.32V567.63c0-5.87,3.85-10.63,8.61-10.63h13.27c4.75,0,8.61,4.76,8.61,10.63V723.37C1519.8,729.24,1515.94,734,1511.19,734Z"/><path class="cls-18" d="M1644.63,589.46h-32.28V723.37c0,5.87-3.85,10.63-8.6,10.63h-15.18c-4.75,0-8.6-4.76-8.6-10.63V589.46h-32.08c-4.75,0-8.6-4.76-8.6-10.63v-11.2c0-5.87,3.85-10.63,8.6-10.63h96.74c4.75,0,8.61,4.76,8.61,10.63v11.2C1653.24,584.7,1649.38,589.46,1644.63,589.46Z"/><path class="cls-7" d="M1130.32,945.41h-.17l-66.57-.64c-9.22-.09-16.82-6.4-17.69-14.69L1040,874.22a11.56,11.56,0,0,1,2.73-8.7,14,14,0,0,1,9.78-4.81h0c5.6-.39,13.49-1.06,21.84-1.77,17.61-1.5,39.53-3.37,51.85-3.52h.26c8.49,0,15.79,5.15,17.81,12.61,3.45,12.75,3.14,37,2.48,62.78C1146.59,938.9,1139.22,945.41,1130.32,945.41Zm-3.82-86h-.21c-12.18.15-34,2-51.56,3.51-8.37.71-16.28,1.38-21.91,1.77h0a10.05,10.05,0,0,0-7,3.42,7.6,7.6,0,0,0-1.83,5.74l5.85,55.86c.66,6.3,6.59,11.1,13.8,11.17l66.58.64h.14c6.76,0,12.37-4.8,12.52-10.76.65-25.51,1-49.42-2.35-61.66C1139,863.32,1133.21,859.36,1126.5,859.36Z"/><path class="cls-19" d="M1060,871c14-1,44.38-4,58.8-4.22,6.11-.08,11.47,3.61,12.9,8.91,2.78,10.29,2.41,30.79,1.93,49.72-.14,5.67-5.35,10.19-11.71,10.13l-53.2-.51c-6.54-.06-12-4.52-12.58-10.33l-4.68-44.64C1051,875.43,1054.83,871.34,1060,871Z"/><g class="cls-20"><path class="cls-7" d="M1187.3,888.16a2.84,2.84,0,0,0-3,3.77l6.73,25.53a5.49,5.49,0,0,0,5,3.87h338.15a3.92,3.92,0,0,0,3.92-4l-.37-16.84a4.24,4.24,0,0,0-4.09-4.09Z"/></g><path class="cls-21" d="M1062.85,879.75h0a10.22,10.22,0,0,1,14.1,3.83l13.13,23.54a3.28,3.28,0,0,0,5.86-.25l32.57-72.51a3.63,3.63,0,0,1,7,1.57c-.33,22.18-6.22,64.34-41.66,99.63,0,0-19.53-7.59-35.25-42.13A10.72,10.72,0,0,1,1062.85,879.75Z"/><path class="cls-7" d="M1130.33,1088.1h-.18l-66.57-.64c-9.22-.09-16.82-6.4-17.69-14.69l-5.85-55.86a11.56,11.56,0,0,1,2.73-8.7,14.08,14.08,0,0,1,9.78-4.82h0c5.62-.38,13.53-1,21.9-1.77,17.59-1.49,39.48-3.36,51.79-3.51h.26c8.49,0,15.79,5.15,17.81,12.61,3.45,12.75,3.14,37,2.48,62.78C1146.59,1081.58,1139.22,1088.1,1130.33,1088.1Zm-77.51-80.77a10.05,10.05,0,0,0-7,3.42,7.6,7.6,0,0,0-1.83,5.74l5.85,55.86c.66,6.3,6.59,11.1,13.8,11.17l66.58.64h.14c6.77,0,12.37-4.8,12.52-10.76.65-25.51,1-49.42-2.35-61.66-1.56-5.79-7.35-9.86-14.21-9.69-12.16.15-34,2-51.51,3.5-8.39.72-16.31,1.39-22,1.78Z"/><path class="cls-19" d="M1060,1013.68c14-1,44.38-4,58.8-4.22,6.11-.08,11.47,3.61,12.9,8.91,2.78,10.29,2.41,30.79,1.93,49.72-.14,5.67-5.35,10.19-11.71,10.13l-53.2-.51c-6.54-.06-12-4.52-12.58-10.33l-4.68-44.64C1051,1018.12,1054.83,1014,1060,1013.68Z"/><g class="cls-20"><path class="cls-7" d="M1187.3,1030.85a2.84,2.84,0,0,0-3,3.77l6.73,25.53a5.49,5.49,0,0,0,5,3.87h338.15a3.92,3.92,0,0,0,3.92-4l-.37-16.84a4.24,4.24,0,0,0-4.09-4.09Z"/></g><path class="cls-22" d="M1062.85,1022.44h0a10.22,10.22,0,0,1,14.1,3.83l13.13,23.54a3.28,3.28,0,0,0,5.86-.25l32.57-72.51a3.63,3.63,0,0,1,7,1.57c-.33,22.18-6.22,64.34-41.66,99.63,0,0-19.53-7.59-35.25-42.13A10.72,10.72,0,0,1,1062.85,1022.44Z"/><path class="cls-7" d="M1130.33,1230.79h-.18l-66.57-.64c-9.22-.09-16.82-6.41-17.69-14.7L1040,1159.6a11.56,11.56,0,0,1,2.73-8.7,14.08,14.08,0,0,1,9.78-4.82h0c5.62-.38,13.53-1,21.9-1.77,17.59-1.49,39.48-3.36,51.79-3.51h.26c8.49,0,15.79,5.16,17.81,12.62,3.45,12.75,3.14,37,2.48,62.78C1146.59,1224.27,1139.22,1230.79,1130.33,1230.79ZM1052.82,1150a10.05,10.05,0,0,0-7,3.42,7.6,7.6,0,0,0-1.83,5.74l5.85,55.86c.66,6.3,6.59,11.1,13.8,11.17l66.58.64h.14c6.77,0,12.37-4.8,12.52-10.76.65-25.51,1-49.42-2.35-61.66-1.56-5.79-7.35-9.82-14.21-9.69-12.16.15-34,2-51.51,3.5-8.39.71-16.31,1.39-22,1.78Z"/><path class="cls-19" d="M1060,1156.37c14-1,44.38-4,58.8-4.23,6.11-.07,11.47,3.62,12.9,8.92,2.78,10.28,2.41,30.79,1.93,49.72-.14,5.67-5.35,10.19-11.71,10.13l-53.2-.51c-6.54-.06-12-4.52-12.58-10.33l-4.68-44.64C1051,1160.81,1054.83,1156.72,1060,1156.37Z"/><g class="cls-20"><path class="cls-7" d="M1187.3,1173.53a2.85,2.85,0,0,0-3,3.78l6.73,25.53a5.49,5.49,0,0,0,5,3.87h338.15a3.92,3.92,0,0,0,3.92-4l-.37-16.84a4.24,4.24,0,0,0-4.09-4.09Z"/></g><path class="cls-23" d="M1062.85,1165.13h0A10.22,10.22,0,0,1,1077,1169l13.13,23.54a3.28,3.28,0,0,0,5.86-.25l32.57-72.51a3.63,3.63,0,0,1,7,1.57c-.33,22.18-6.22,64.34-41.66,99.63,0,0-19.53-7.6-35.25-42.13A10.72,10.72,0,0,1,1062.85,1165.13Z"/><path class="cls-7" d="M1130.33,1373.48h-.18l-66.57-.64c-9.22-.09-16.82-6.41-17.69-14.7l-5.85-55.86a11.54,11.54,0,0,1,2.73-8.69,14,14,0,0,1,9.78-4.82h0c5.6-.38,13.49-1,21.84-1.76,17.61-1.5,39.53-3.37,51.85-3.52h.26c8.49,0,15.79,5.15,17.81,12.61,3.45,12.75,3.14,37,2.48,62.78C1146.59,1367,1139.22,1373.48,1130.33,1373.48Zm-3.83-86h-.21c-12.18.15-34,2-51.57,3.51-8.36.71-16.27,1.38-21.9,1.77h0a10.05,10.05,0,0,0-7,3.42,7.6,7.6,0,0,0-1.83,5.74l5.85,55.86c.66,6.3,6.59,11.1,13.8,11.17l66.58.64h.14c6.77,0,12.37-4.8,12.52-10.76.65-25.51,1-49.42-2.35-61.66C1139,1291.39,1133.21,1287.43,1126.5,1287.43Z"/><path class="cls-19" d="M1060,1299.06c14-1,44.38-4,58.8-4.23,6.11-.07,11.47,3.62,12.9,8.92,2.78,10.28,2.41,30.79,1.93,49.72-.14,5.67-5.35,10.19-11.71,10.13l-53.2-.51c-6.54-.06-12-4.52-12.58-10.33l-4.68-44.64C1051,1303.5,1054.83,1299.41,1060,1299.06Z"/><g class="cls-20"><path class="cls-7" d="M1187.3,1316.22a2.85,2.85,0,0,0-3,3.78l6.73,25.53a5.49,5.49,0,0,0,5,3.87h338.15a3.92,3.92,0,0,0,3.92-4l-.37-16.84a4.24,4.24,0,0,0-4.09-4.09Z"/></g><path class="cls-24" d="M1062.85,1307.82h0a10.22,10.22,0,0,1,14.1,3.83l13.13,23.54a3.28,3.28,0,0,0,5.86-.25l32.57-72.52a3.64,3.64,0,0,1,7,1.58c-.33,22.18-6.22,64.34-41.66,99.63,0,0-19.53-7.6-35.25-42.13A10.72,10.72,0,0,1,1062.85,1307.82Z"/><path class="cls-25" d="M1386.59,256.11c-27.74-19.3-51.86-18.92-68.84-13.91a33.86,33.86,0,0,0-24,35.61l7.32,79.92,87.13,7.74S1441,294,1386.59,256.11Zm-38.32,64.48A21.73,21.73,0,1,1,1370,298.86,21.72,21.72,0,0,1,1348.27,320.59Z"/><path class="cls-10" d="M1309.72,324a2,2,0,0,1-2-1.79l-1.16-12.73a2,2,0,0,1,3.92-.36l1.17,12.73a2,2,0,0,1-1.78,2.14ZM1307.44,299a2,2,0,0,1-2-1.79l-.89-9.67a32.19,32.19,0,0,1,22.83-33.78,65,65,0,0,1,31.78-1.3,2,2,0,0,1-.79,3.86,61.16,61.16,0,0,0-29.88,1.22,28.24,28.24,0,0,0-20,29.64l.88,9.67a2,2,0,0,1-1.78,2.14Z"/><path class="cls-26" d="M1182.1,409.39V369.2a24.51,24.51,0,0,1,25.36-24.5l277,9.49a23.83,23.83,0,0,1,23,22.4l2.32,38.61Z"/><path class="cls-10" d="M1285.4,359.7h-11.91a2,2,0,0,1,0-3.94h11.91a2,2,0,1,1,0,3.94Z"/><path class="cls-10" d="M1197.09,396.64a2,2,0,0,1-2-2V378.41a22.67,22.67,0,0,1,22.65-22.65h43.8a2,2,0,1,1,0,3.94h-43.8a18.73,18.73,0,0,0-18.71,18.71v16.26A2,2,0,0,1,1197.09,396.64Z"/><path class="cls-27" d="M1095.29,394.68h484.47a35.79,35.79,0,0,1,35.28,29.7l.41,2.36a30.75,30.75,0,0,1-30.3,36h-497a20,20,0,0,1-20-21l1.07-22.25A26.11,26.11,0,0,1,1095.29,394.68Z"/><path class="cls-28" d="M1943.69,930s19,9.25,22.5,19.87c2.8,8.52,23.82,9.62,25.9,26.38a19.22,19.22,0,0,0,16.09,16.9c21.46,3.29,54.54,14.44,59.83,51.7,4,28.45-10.46,39.24-25.68,43-11.17,2.74-18.6,13.61-16.34,24.9,2.17,10.82-1.07,23.34-19.82,33.23-42,22.17-84-52.53-84-52.53L1913.59,963Z"/><path class="cls-29" d="M1803.2,884.69s35.59,97,96.24,127.34c0,0-20.19,32.93-30.72,34.93,0,0-64.78-82.91-71.39-150.84Z"/><path class="cls-30" d="M2047.09,1468.3l1.79,14.71a6.08,6.08,0,0,0,5.33,5.32,94.19,94.19,0,0,0,19.69.31,5.2,5.2,0,0,0,4.37-6.75c-1.8-5.68-5.11-14.21-9.87-19.22h-16.32A5,5,0,0,0,2047.09,1468.3Z"/><path class="cls-31" d="M1919.25,1295.94l-2.76,16.2s9.23,93.45,10.87,130.83a29.26,29.26,0,0,1-4.34,16.65l-16,26.05,40.77-24.06.81-5-6.67-9.18,8.74-104.69A32,32,0,0,0,1947,1325l-8.44-15.84Z"/><path class="cls-32" d="M1904.3,1489.44h13a7.84,7.84,0,0,0,6.22-3c4-5.27,12.46-15.56,16.47-15.83,5.41-.36,4.72,18.87,4.72,18.87h3l3.84-23.89a14.15,14.15,0,0,0-7.42-14.79h0s-1.24,9.15-7.94,13.19-27.28,18.53-27.28,18.53a18.59,18.59,0,0,0-5.29.14C1899.55,1483.36,1900.13,1489.44,1904.3,1489.44Z"/><path class="cls-33" d="M1975.09,1303.64s54.05,102.52,62.64,125.92,11.6,42.94,11.71,44.79c.18,2.89,3.78,5.66,13.69,5.66,5.11,0,7.61-2,8.84-4a5.81,5.81,0,0,0,.22-5.6c-3.13-6.32-13.05-26.54-16.73-35.72-4.38-10.94-13.82-60.57-19-77.82s-11-36-33.56-53.2C2002.9,1303.64,1987.43,1288.48,1975.09,1303.64Z"/><path class="cls-34" d="M1941,1135.65c-13.94-59.08,21.37-92.49,21.37-92.49-22.28-21.39-62.88-31.13-62.88-31.13s-38.75,28.33-34.15,50.5c2.69,13,27.23,77.83,27.23,77.83S1915.21,1151.1,1941,1135.65Z"/><path class="cls-35" d="M1971.86,1164.89c-5.68-17.09-30.91-29.24-30.91-29.24-25.74,15.45-48.43,4.71-48.43,4.71s-5.09,19.46-1.58,37.53,25.55,134.25,25.55,134.25c34.72,7,88.13-7.07,88.13-7.07C1982.5,1265.8,1977.53,1182,1971.86,1164.89Z"/><path class="cls-36" d="M1924.76,973l11.34,50.92c1.08,4.48-3,3.75-7.54,2.89-7.42-1.4-17-4.28-20.19-10.06a5.35,5.35,0,0,1-.58-1.92l-4.87-35.3a6.35,6.35,0,0,1,3.71-6.67l9.4-4.16A6.33,6.33,0,0,1,1924.76,973Z"/><path class="cls-37" d="M1962.32,1043.16s79.12,56.6,10.12,116.07a17.82,17.82,0,0,1-7.8,4.53c-2.62.78-10.35,6.63-14.26,9.67a2.69,2.69,0,0,1-3.93-.7h0a3.67,3.67,0,0,1-.21-3.52l9.8-20.71a7.54,7.54,0,0,1,9.81-.42h0a3.73,3.73,0,0,0,5.65-1.28c5.33-10.87,15.4-42.81-25.82-78.91a4.47,4.47,0,0,1-1-5.43C1947.59,1056.89,1954.21,1045.85,1962.32,1043.16Z"/><path class="cls-38" d="M1911.47,924.51s-13.43,5.67-22.56,25.07-2.31,28.36,6.25,29.59,21.37,1,34.91-11.49S1928.92,917.8,1911.47,924.51Z"/><path class="cls-39" d="M1921,957.32s10.13-28.38-15-28.72l-5.93,4.14s-9.23-15.73,5.93-23.24,32.88-1.31,39.33,19.1,7.55,34.09-3.18,43.85-15.15-1.3-15.15-1.3,5.85-9.14,3.47-14-7.87,1-7.87,1Z"/><path class="cls-40" d="M1923.79,960.48s5.12-14.62,12-8.79-5.55,13.5-10.4,16Z"/><path class="cls-41" d="M1799.79,902.35c-.55,1.72,5.74,4.35,9.44-2.71.13-3.38,2.19-17.88.17-20.63-10.77-14.69-31.65-33.09-31.65-33.09a5,5,0,0,0-.62,6.9l10.13,10.55c-2.12,3.83-4.7,7.06-5.91,11.69a14.19,14.19,0,0,0,1.41,10.45c1.78,3.2,4.2,7.36,6.5,10.62A14,14,0,0,0,1799.79,902.35Z"/><path class="cls-42" d="M1794.62,895.13c-.76-4.24-3.09-15.84-4.7-18.45-1.12-1.84-1.49-3.37-1.12-4.68a4.34,4.34,0,0,1,2.44-2.66l.59-.3,9.92,8.42,3,8-1.85.69-2.8-7.55-8.5-7.21a2,2,0,0,0-.89,1.11c-.21.75.09,1.79.9,3.11,2.13,3.47,4.84,18.51,5,19.15Z"/><path class="cls-43" d="M1439.29,1249.29s-24.24-109.33-57.3-95.41-28.66,39.75-39.68,47.7S1291.62,1267.18,1439.29,1249.29Z"/><path class="cls-44" d="M1434.88,1249.29s-11-111.32,24.25-109.33,24.24,49.7,55.1,51.68S1558.31,1257.24,1434.88,1249.29Z"/><path class="cls-45" d="M1516.89,1511.68H1370.15c-17,0-31.11-11.75-32.5-27l-18.89-207.56c-1.56-17.13,13.44-31.81,32.49-31.81h165.64c18,0,32.61,13.17,32.61,29.41v207.55C1549.5,1498.51,1534.9,1511.68,1516.89,1511.68Z"/><rect class="cls-46" x="1408.44" y="1245.31" width="50.69" height="266.36"/><path class="cls-47" d="M1626.33,1307.74s-24.24-109.33-57.3-95.41-28.66,39.75-39.68,47.7S1478.66,1325.63,1626.33,1307.74Z"/><path class="cls-48" d="M1621.92,1307.74s-11-111.32,24.25-109.33,24.24,49.7,55.1,51.68S1745.35,1315.69,1621.92,1307.74Z"/><path class="cls-49" d="M1703.93,1511.68H1557.19c-17,0-31.11-11.75-32.5-27l-18.89-149.11c-1.56-17.13,13.44-31.81,32.49-31.81h165.64c18,0,32.61,13.17,32.61,29.41v149.1C1736.54,1498.51,1721.94,1511.68,1703.93,1511.68Z"/><rect class="cls-50" x="1595.48" y="1303.76" width="50.69" height="207.91"/><path class="cls-9" d="M2024.64,625.77a2,2,0,0,1-.76-3.79c2.39-1,4.79-2.05,7.14-3.14a2,2,0,1,1,1.66,3.57c-2.39,1.12-4.85,2.2-7.28,3.21A1.87,1.87,0,0,1,2024.64,625.77Z"/><path class="cls-9" d="M1952.23,640.16c-3.3,0-6.65-.09-10-.26a2,2,0,0,1-1.86-2.07,1.94,1.94,0,0,1,2.07-1.86q7.9.4,15.85.15a1.92,1.92,0,0,1,2,1.91,2,2,0,0,1-1.91,2Q1955.34,640.17,1952.23,640.16Zm32.07-2.72a2,2,0,0,1-.33-3.91c5.2-.89,10.42-2,15.5-3.34a2,2,0,0,1,1,3.82c-5.2,1.35-10.52,2.49-15.83,3.4Zm-67.74-.7-.38,0c-5.27-1-10.57-2.29-15.74-3.77a2,2,0,1,1,1.08-3.79c5.06,1.44,10.25,2.68,15.41,3.69a2,2,0,0,1-.37,3.9Zm-40.06-12.58a2.05,2.05,0,0,1-.8-.17c-4.91-2.18-9.79-4.6-14.51-7.19a2,2,0,1,1,1.9-3.45c4.62,2.53,9.4,4.9,14.21,7a2,2,0,0,1-.8,3.78ZM1840.24,603a1.93,1.93,0,0,1-1.17-.4c-4.31-3.21-8.54-6.65-12.56-10.21a2,2,0,1,1,2.61-3c3.94,3.49,8.08,6.86,12.3,10a2,2,0,0,1-1.18,3.56Zm-30.65-28.68a2,2,0,0,1-1.5-.69c-3.5-4.08-6.86-8.37-10-12.74a2,2,0,0,1,3.2-2.3c3.07,4.28,6.36,8.48,9.78,12.48a2,2,0,0,1-.22,2.78A1.93,1.93,0,0,1,1809.59,574.29Zm-23.54-34.74a2,2,0,0,1-1.75-1c-2.5-4.76-4.82-9.68-6.9-14.64a2,2,0,0,1,3.63-1.53c2,4.86,4.31,9.68,6.76,14.34a2,2,0,0,1-1.74,2.88Zm-15.2-39.12a2,2,0,0,1-1.91-1.47c-1.37-5.2-2.53-10.52-3.45-15.82a2,2,0,1,1,3.88-.67c.91,5.19,2,10.4,3.38,15.48a2,2,0,0,1-1.4,2.41A1.77,1.77,0,0,1,1770.85,500.43Zm-6.12-41.54a2,2,0,0,1-2-1.9q-.12-3.42-.12-6.83c0-3.12.07-6.26.23-9.36a2,2,0,1,1,3.93.2c-.14,3-.22,6.11-.22,9.16q0,3.33.12,6.69a2,2,0,0,1-1.9,2Zm3.19-41.87-.37,0a2,2,0,0,1-1.57-2.31c1-5.28,2.26-10.58,3.72-15.76a2,2,0,0,1,2.43-1.36,2,2,0,0,1,1.36,2.43c-1.42,5.07-2.65,10.26-3.63,15.43A2,2,0,0,1,1767.92,417Z"/><path class="cls-9" d="M1780.44,376.8a1.81,1.81,0,0,1-.79-.17,2,2,0,0,1-1-2.6c1.07-2.42,2.2-4.85,3.37-7.21a2,2,0,1,1,3.53,1.74c-1.14,2.31-2.24,4.69-3.29,7.06A2,2,0,0,1,1780.44,376.8Z"/><path class="cls-9" d="M1887.69,276a2,2,0,0,1-.67-3.82c2.49-.92,5-1.79,7.53-2.58a2,2,0,1,1,1.2,3.75c-2.45.78-4.93,1.63-7.38,2.53A2,2,0,0,1,1887.69,276Z"/><path class="cls-9" d="M2130.58,512a2.23,2.23,0,0,1-.62-.1,2,2,0,0,1-1.25-2.5c1.65-4.91,3.11-9.95,4.34-15a2,2,0,0,1,3.83.93c-1.26,5.15-2.75,10.3-4.43,15.31A2,2,0,0,1,2130.58,512Zm8.72-40.39h-.2a2,2,0,0,1-1.76-2.16c.52-5.16.83-10.4.93-15.58a1.92,1.92,0,0,1,2-1.93,2,2,0,0,1,1.94,2c-.1,5.29-.41,10.64-.95,15.91A2,2,0,0,1,2139.3,471.59Zm-.35-41.32a2,2,0,0,1-1.95-1.74c-.61-5.16-1.44-10.34-2.47-15.4a2,2,0,1,1,3.87-.79c1,5.17,1.89,10.47,2.51,15.73a2,2,0,0,1-1.72,2.19ZM2129.67,390a2,2,0,0,1-1.86-1.31c-1.72-4.89-3.66-9.77-5.78-14.49a2,2,0,0,1,3.59-1.61c2.17,4.82,4.15,9.8,5.91,14.79a2,2,0,0,1-1.21,2.51A1.89,1.89,0,0,1,2129.67,390Zm-17.9-37.2a2,2,0,0,1-1.67-.93c-2.75-4.38-5.72-8.71-8.82-12.86a2,2,0,1,1,3.15-2.36c3.17,4.23,6.2,8.65,9,13.13a2,2,0,0,1-1.67,3Zm-25.62-32.39a2,2,0,0,1-1.41-.59c-3.64-3.68-7.48-7.26-11.41-10.63a2,2,0,1,1,2.56-3c4,3.44,7.94,7.09,11.66,10.85a2,2,0,0,1,0,2.79A2,2,0,0,1,2086.15,320.43Zm-32.08-26.05a2,2,0,0,1-1.06-.31c-4.36-2.81-8.88-5.46-13.46-7.9a2,2,0,0,1,1.85-3.48c4.67,2.49,9.3,5.2,13.74,8.07a2,2,0,0,1-1.07,3.62Zm-37-18.43a2,2,0,0,1-.68-.12c-4.87-1.79-9.87-3.39-14.86-4.76a2,2,0,0,1,1-3.8c5.1,1.4,10.21,3,15.18,4.86a2,2,0,0,1-.68,3.82ZM1920,267.32a2,2,0,0,1-.33-3.91c5.19-.9,10.5-1.6,15.79-2.07a2,2,0,1,1,.35,3.92c-5.18.46-10.38,1.15-15.47,2A2,2,0,0,1,1920,267.32Zm56.94-1.23-.26,0c-5.13-.67-10.36-1.13-15.53-1.37a2,2,0,0,1-1.88-2.05,2,2,0,0,1,2.06-1.88c5.28.24,10.62.71,15.86,1.39a2,2,0,0,1-.25,3.93Z"/><path class="cls-9" d="M2117.09,542.74a1.93,1.93,0,0,1-1-.25,2,2,0,0,1-.78-2.68c1.26-2.28,2.47-4.6,3.62-6.9a2,2,0,0,1,2.64-.89,2,2,0,0,1,.89,2.64c-1.17,2.35-2.41,4.72-3.69,7.05A2,2,0,0,1,2117.09,542.74Z"/><path class="cls-9" d="M2069.15,535.19a2.23,2.23,0,0,0,.3-2.6l-13.23-24a119.47,119.47,0,0,0,13-36.47l25.44-10.22a2.25,2.25,0,0,0,1.41-2.2l-1.64-32.87a2.26,2.26,0,0,0-1.63-2.05l-26.33-7.63a119.42,119.42,0,0,0-16.61-35l10.77-25.23a2.26,2.26,0,0,0-.56-2.56l-24.41-22.08a2.27,2.27,0,0,0-2.6-.3l-24,13.24a119.51,119.51,0,0,0-36.46-13l-10.23-25.45a2.26,2.26,0,0,0-2.2-1.41L1927.29,307a2.25,2.25,0,0,0-2,1.62l-7.63,26.34a119.47,119.47,0,0,0-35,16.6l-25.24-10.77a2.26,2.26,0,0,0-2.56.57l-22.07,24.4a2.25,2.25,0,0,0-.31,2.6l13.24,24a119.66,119.66,0,0,0-13,36.47l-25.44,10.22a2.27,2.27,0,0,0-1.42,2.21l1.65,32.87a2.25,2.25,0,0,0,1.63,2.05l26.33,7.63a119.59,119.59,0,0,0,16.6,35L1841.26,544a2.23,2.23,0,0,0,.56,2.55l24.4,22.08a2.25,2.25,0,0,0,2.6.3l24-13.23a119.51,119.51,0,0,0,36.46,13l10.23,25.44a2.24,2.24,0,0,0,2.2,1.41l32.87-1.65a2.24,2.24,0,0,0,2.05-1.62L1984.3,566a119.34,119.34,0,0,0,35-16.6l25.24,10.77a2.24,2.24,0,0,0,2.55-.56Z"/><path class="cls-10" d="M1950.91,482.66a32.3,32.3,0,1,1,9.47-1.43A32.42,32.42,0,0,1,1950.91,482.66Zm0-58.47a26.27,26.27,0,1,0,25.13,18.58h0A26.31,26.31,0,0,0,1950.94,424.19Z"/><path class="cls-10" d="M1950.35,532.4a82.47,82.47,0,0,1-82.22-78.24c-.07-1.4-.1-2.79-.1-4.17a82.37,82.37,0,0,1,164.63-4.07c.07,1.38.1,2.77.11,4.16a83.65,83.65,0,0,1-1.08,13.34l-5.84-.95a76.51,76.51,0,0,0,1-12.39q0-1.93-.09-3.87A76.46,76.46,0,0,0,1873.94,450c0,1.29,0,2.58.1,3.87a76.47,76.47,0,0,0,118.85,59.75l3.29,4.91a82.26,82.26,0,0,1-41.66,13.78C1953.12,532.37,1951.73,532.4,1950.35,532.4Z"/><path class="cls-9" d="M1843.43,318.17,1835,305.33a67,67,0,0,0,5.65-20.94l13.75-6.85a1.26,1.26,0,0,0,.7-1.29L1852.69,258a1.26,1.26,0,0,0-1-1.08l-15-3.09a66.93,66.93,0,0,0-10.83-18.8l4.9-14.57a1.27,1.27,0,0,0-.43-1.41l-14.61-11.24a1.28,1.28,0,0,0-1.47-.06l-12.83,8.46a67.1,67.1,0,0,0-20.95-5.65l-6.84-13.76a1.26,1.26,0,0,0-1.29-.69L1754,198.46a1.26,1.26,0,0,0-1.07,1l-3.09,15a66.9,66.9,0,0,0-18.8,10.82l-14.58-4.89a1.26,1.26,0,0,0-1.4.43l-11.25,14.61a1.26,1.26,0,0,0,0,1.47l8.46,12.83a66.83,66.83,0,0,0-5.65,21l-13.76,6.84a1.26,1.26,0,0,0-.69,1.29l2.38,18.29a1.26,1.26,0,0,0,1,1.07l15,3.09a66.66,66.66,0,0,0,10.82,18.8l-4.89,14.57a1.27,1.27,0,0,0,.43,1.41l14.61,11.24a1.26,1.26,0,0,0,1.46.06l12.84-8.46a67,67,0,0,0,20.94,5.65l6.84,13.76a1.27,1.27,0,0,0,1.3.69l18.28-2.38a1.26,1.26,0,0,0,1.08-1l3.09-15a67,67,0,0,0,18.8-10.82l14.57,4.89a1.25,1.25,0,0,0,1.4-.43l11.25-14.61A1.26,1.26,0,0,0,1843.43,318.17Z"/><path class="cls-10" d="M1773.59,296.9a19.34,19.34,0,1,1,18-26.45h0a19.37,19.37,0,0,1-18,26.45Zm0-32.76a13.42,13.42,0,1,0,12.49,8.48A13.44,13.44,0,0,0,1773.58,264.14Z"/><path class="cls-9" d="M1833.52,358.15a2,2,0,0,1-1.19-3.54c2-1.55,4-3.21,6-4.92a2,2,0,1,1,2.63,2.93c-2,1.78-4.07,3.51-6.19,5.12A2,2,0,0,1,1833.52,358.15Z"/><path class="cls-9" d="M1772.38,378.39h0a101.76,101.76,0,0,1-15.66-1.43,2,2,0,0,1,.66-3.89,96.36,96.36,0,0,0,15.05,1.37,2,2,0,0,1,0,3.95Zm24.84-2.88a2,2,0,0,1-.47-3.89,98.06,98.06,0,0,0,12.46-4l1.88-.76a2,2,0,1,1,1.53,3.63l-2,.8a102.21,102.21,0,0,1-13,4.15A2,2,0,0,1,1797.22,375.51Zm-64.12-5.81a2.1,2.1,0,0,1-.81-.17,102.35,102.35,0,0,1-13.8-7.53,2,2,0,1,1,2.15-3.31,96.73,96.73,0,0,0,13.26,7.24,2,2,0,0,1-.8,3.77Zm-32.59-23.57a2,2,0,0,1-1.46-.64,100.61,100.61,0,0,1-9.65-12.41,2,2,0,0,1,3.29-2.17,96.22,96.22,0,0,0,9.27,11.93,2,2,0,0,1-1.45,3.29ZM1680,311.5a2,2,0,0,1-1.86-1.33,99.78,99.78,0,0,1-3.93-15.22,2,2,0,1,1,3.88-.69,96.73,96.73,0,0,0,3.78,14.63,2,2,0,0,1-1.23,2.51A2,2,0,0,1,1680,311.5Z"/><path class="cls-9" d="M1675,271.49h-.16a2,2,0,0,1-1.8-2.12c.21-2.65.54-5.34,1-8a2,2,0,1,1,3.89.64c-.42,2.54-.74,5.12-.94,7.66A2,2,0,0,1,1675,271.49Z"/><path class="cls-9" d="M1714,200.61a2,2,0,0,1-1.19-3.55c2.14-1.61,4.36-3.15,6.61-4.58a2,2,0,0,1,2.11,3.33c-2.15,1.37-4.29,2.85-6.34,4.4A2,2,0,0,1,1714,200.61Z"/><path class="cls-9" d="M1871.7,267.42a2,2,0,0,1-2-1.73,95.38,95.38,0,0,0-3-14.56,2,2,0,0,1,3.8-1.08,102.23,102.23,0,0,1,3.08,15.15,2,2,0,0,1-1.72,2.2Zm-12.61-37.51a2,2,0,0,1-1.71-1,96.85,96.85,0,0,0-8.41-12.24,2,2,0,1,1,3.07-2.48,100.26,100.26,0,0,1,8.75,12.75,2,2,0,0,1-1.7,3Zm-26.3-29.55a2,2,0,0,1-1.18-.39,97,97,0,0,0-12.55-8,2,2,0,1,1,1.85-3.48,102,102,0,0,1,13.06,8.28,2,2,0,0,1-1.18,3.55Zm-90-14.76a2,2,0,0,1-.62-3.84,101.64,101.64,0,0,1,15-3.7,2,2,0,1,1,.64,3.89,97.28,97.28,0,0,0-14.42,3.55A2,2,0,0,1,1742.74,185.6Zm54.26-2.12a2.59,2.59,0,0,1-.47,0,97.24,97.24,0,0,0-14.66-2.42,2,2,0,0,1,.34-3.93,101.2,101.2,0,0,1,15.26,2.52,2,2,0,0,1-.47,3.88Z"/><path class="cls-9" d="M1870.32,299.87a1.84,1.84,0,0,1-.41,0,2,2,0,0,1-1.52-2.33c.53-2.52,1-5.08,1.29-7.62a2,2,0,0,1,3.91.51c-.34,2.63-.79,5.3-1.35,7.92A2,2,0,0,1,1870.32,299.87Z"/><path class="cls-10" d="M1773.17,324.8a47.47,47.47,0,0,1-47-41.33,48.38,48.38,0,0,1-.4-6.23,47.45,47.45,0,1,1,94.77,3.74l0,.34-5.89-.49c.1-1.14.14-2.28.14-3.42a41.25,41.25,0,0,0-.35-5.43h0a41.54,41.54,0,0,0-82.73,5.34,42.77,42.77,0,0,0,.35,5.39A41.55,41.55,0,0,0,1799,309.94l3.67,4.64a47.37,47.37,0,0,1-23.29,9.81A46.63,46.63,0,0,1,1773.17,324.8Z"/><ellipse class="cls-51" cx="462.01" cy="1028.67" rx="166.79" ry="151.29"/><ellipse class="cls-11" cx="462.01" cy="1028.67" rx="161.24" ry="146.26"/><path class="cls-10" d="M313.37,1023.48h-.11a2,2,0,0,1-1.86-2.08,125,125,0,0,1,2.2-17.24,2,2,0,0,1,2.32-1.54,2,2,0,0,1,1.55,2.31,121.68,121.68,0,0,0-2.13,16.69A2,2,0,0,1,313.37,1023.48Z"/><path class="cls-10" d="M329.05,969.89a2,2,0,0,1-1.72-2.93c25.83-46.43,77.44-75.27,134.68-75.27a166.1,166.1,0,0,1,27.17,2.22,2,2,0,1,1-.64,3.88A163.92,163.92,0,0,0,462,895.63c-55.81,0-106.1,28.07-131.24,73.25A2,2,0,0,1,329.05,969.89Z"/><ellipse class="cls-52" cx="465.52" cy="1031.86" rx="136.47" ry="123.79"/><path class="cls-53" d="M377.84,1152.49a19.6,19.6,0,0,1-23.35-14.92L318.63,974.9a17.25,17.25,0,0,1,12.28-20.36l233.2-64a12.73,12.73,0,0,1,15.75,9.3l44.5,185.71a12.09,12.09,0,0,1-9.15,14.61Z"/><path class="cls-54" d="M359.4,1142.58a5.7,5.7,0,0,1-6.93-5.09c-1.88-22.87-9.41-101.32-28.18-163.41a5.26,5.26,0,0,1,3.62-6.6L562,902.65a6.05,6.05,0,0,1,7.44,4.19c7.43,26.21,37.63,134.27,42.14,174.19a4.79,4.79,0,0,1-3.71,5.22Z"/><path class="cls-19" d="M364.76,1138.65a5.48,5.48,0,0,1-6.67-4.89c-1.81-22-9.06-97.51-27.12-157.26a5,5,0,0,1,3.49-6.35l225.31-62.39a5.82,5.82,0,0,1,7.16,4c7.15,25.23,36.21,129.22,40.56,167.63a4.62,4.62,0,0,1-3.58,5Z"/><path class="cls-55" d="M360.13,975.11l-2.17.48a4.37,4.37,0,0,1-5.21-3.33l-7-31.7a4.35,4.35,0,0,1,1.76-4.51l4.13-2.91a4.38,4.38,0,0,1,6.84,2.94l5,34.13A4.36,4.36,0,0,1,360.13,975.11Z"/><path class="cls-56" d="M404.1,962.93l-2.17.48a4.37,4.37,0,0,1-5.21-3.33l-7-31.7a4.36,4.36,0,0,1,1.75-4.51l4.13-2.91a4.37,4.37,0,0,1,6.84,2.93l5,34.13A4.37,4.37,0,0,1,404.1,962.93Z"/><path class="cls-57" d="M463.41,949.85l-2.16.48A4.37,4.37,0,0,1,456,947l-7-31.7a4.36,4.36,0,0,1,1.75-4.51l4.13-2.91a4.37,4.37,0,0,1,6.84,2.94l5,34.13A4.37,4.37,0,0,1,463.41,949.85Z"/><path class="cls-58" d="M522,933.56l-2.16.48a4.37,4.37,0,0,1-5.21-3.33l-7-31.7a4.36,4.36,0,0,1,1.75-4.51l4.13-2.91a4.37,4.37,0,0,1,6.84,2.94l5,34.13A4.37,4.37,0,0,1,522,933.56Z"/><path class="cls-59" d="M473.34,977.17,477,993.61a4.6,4.6,0,0,0,5.55,3.48l16.8-4a4.6,4.6,0,0,0,3.43-5.46l-3.81-17.29a4.6,4.6,0,0,0-5.78-3.42l-16.61,4.82A4.6,4.6,0,0,0,473.34,977.17Z"/><path class="cls-59" d="M419.74,1012.19l16.8-4a4.6,4.6,0,0,0,3.43-5.47l-3.24-14.69a4.59,4.59,0,0,0-5.74-3.44l-16.64,4.68a4.61,4.61,0,0,0-3.25,5.42l3.09,14A4.6,4.6,0,0,0,419.74,1012.19Z"/><path class="cls-59" d="M452.13,1081.47l-16,3.72a5,5,0,0,0-3.77,6l3.31,15a5,5,0,0,0,5.88,3.84l16.11-3.2a5,5,0,0,0,3.93-6l-3.43-15.54A5,5,0,0,0,452.13,1081.47Z"/><path class="cls-59" d="M430,1107.19l-3.24-14.69a4.94,4.94,0,0,0-5.94-3.74l-16.16,3.76a4.94,4.94,0,0,0-3.7,5.87l3.12,14.15a4.94,4.94,0,0,0,5.78,3.78l16.28-3.23A4.94,4.94,0,0,0,430,1107.19Z"/><path class="cls-59" d="M415.33,1040.89l-2.66-12.05a5.31,5.31,0,0,0-6.45-4l-15.39,3.77a5.31,5.31,0,0,0-3.92,6.3l2.54,11.52a5.32,5.32,0,0,0,6.27,4.06l15.51-3.24A5.3,5.3,0,0,0,415.33,1040.89Z"/><path class="cls-59" d="M423.05,1075.92,419,1057.48a4.92,4.92,0,0,0-5.83-3.76l-15.87,3.3a5.32,5.32,0,0,0-4.1,6.35l4.1,18.59a4.94,4.94,0,0,0,6,3.74l16.13-3.92A4.93,4.93,0,0,0,423.05,1075.92Z"/><path class="cls-59" d="M451.16,1004.75l16.79-4a4.59,4.59,0,0,0,3.43-5.47l-3.53-16a4.58,4.58,0,0,0-5.73-3.43l-16.65,4.68a4.59,4.59,0,0,0-3.24,5.42l3.37,15.3A4.61,4.61,0,0,0,451.16,1004.75Z"/><path class="cls-59" d="M454.41,1068.23l-3.8-17.25a5,5,0,0,0-5.93-3.83l-16.07,3.35a5,5,0,0,0-3.88,6l3.91,17.77a5,5,0,0,0,6.09,3.8l16-3.87A5,5,0,0,0,454.41,1068.23Z"/><path class="cls-59" d="M470.44,1009.11l-18.31,4.48a3.82,3.82,0,0,0-2.82,4.52l3.66,16.58a3.82,3.82,0,0,0,4.5,2.91l18.45-3.85a3.81,3.81,0,0,0,2.94-4.55l-3.8-17.22A3.81,3.81,0,0,0,470.44,1009.11Z"/><path class="cls-59" d="M480.88,1011.36l3.48,15.8a4.78,4.78,0,0,0,5.65,3.65l16.54-3.45a4.78,4.78,0,0,0,3.7-5.71l-3.61-16.36a4.78,4.78,0,0,0-5.81-3.62l-16.41,4A4.79,4.79,0,0,0,480.88,1011.36Z"/><path class="cls-59" d="M425.87,1044.18l18.45-3.84a3.82,3.82,0,0,0,2.94-4.55l-3.56-16.13a3.8,3.8,0,0,0-4.62-2.88l-18.31,4.48a3.82,3.82,0,0,0-2.82,4.52l3.42,15.49A3.8,3.8,0,0,0,425.87,1044.18Z"/><path class="cls-59" d="M476.28,1040.56l-16.07,3.35a5,5,0,0,0-3.88,6l3.69,16.74a5,5,0,0,0,6.09,3.79l16-3.87a5,5,0,0,0,3.71-6l-3.57-16.22A5,5,0,0,0,476.28,1040.56Z"/><path class="cls-59" d="M508.44,1033.86l-17.2,3.58a4.45,4.45,0,0,0-3.44,5.31l3.72,16.85a4.44,4.44,0,0,0,5.39,3.37l17.08-4.15a4.44,4.44,0,0,0,3.29-5.28l-3.59-16.29A4.44,4.44,0,0,0,508.44,1033.86Z"/><path class="cls-59" d="M390.63,1018.86l12.75-3a6.36,6.36,0,0,0,4.75-7.58l-2.32-10.56a5.69,5.69,0,0,0-7.09-4.25l-14.05,3.95a6.25,6.25,0,0,0-4.4,7.36l1.94,8.81A7,7,0,0,0,390.63,1018.86Z"/><path class="cls-59" d="M395.35,1100.19a5.31,5.31,0,0,0-6.39-4l-5.56,1.29c-4.22,1-7,4.61-6.21,8.13l2.25,10.21c.77,3.5,4.75,5.62,9,4.78l6-1.19a4.94,4.94,0,0,0,3.86-5.91Z"/><path class="cls-59" d="M572.83,1053.39l-10.93,2.54a5,5,0,0,0-3.77,6l4.22,19.12a5,5,0,0,0,5.88,3.85l11-2.18c4.38-.86,7.32-4.57,6.52-8.19l-3.61-16.4C581.32,1054.51,577.14,1052.39,572.83,1053.39Z"/><path class="cls-59" d="M382.25,1090.8l5.42-1.32a5.3,5.3,0,0,0,3.93-6.3l-4.13-18.74a5.31,5.31,0,0,0-6.27-4.06l-5.49,1.14c-4.33.91-7.23,4.59-6.44,8.18l3.62,16.4C373.69,1089.73,377.92,1091.85,382.25,1090.8Z"/><path class="cls-59" d="M374,1055l6.87-1.44a4,4,0,0,0,3.1-4.79l-3-13.54a4,4,0,0,0-4.88-3l-6.88,1.69c-4.17,1-6.88,4.61-6.11,8.1l1.82,8.25C365.76,1053.75,369.79,1055.87,374,1055Z"/><path class="cls-59" d="M549.81,951,539,954a4.78,4.78,0,0,0-3.37,5.64l4.16,18.89a4.8,4.8,0,0,0,5.78,3.63l11.27-2.67c4.21-1,7-4.61,6.18-8.13l-3.48-15.8C558.68,951.84,554.23,949.72,549.81,951Z"/><path class="cls-59" d="M483.57,1074.15l-16,3.72a5,5,0,0,0-3.77,6l3.54,16.05a5,5,0,0,0,5.88,3.85l16.11-3.2a5,5,0,0,0,3.92-6L489.61,1078A5,5,0,0,0,483.57,1074.15Z"/><path class="cls-59" d="M558.22,987.62l-11.08,2.71A4.79,4.79,0,0,0,543.6,996l4,18a4.8,4.8,0,0,0,5.66,3.66l11.21-2.34c4.33-.9,7.23-4.58,6.44-8.18l-3.27-14.81C566.8,988.68,562.56,986.56,558.22,987.62Z"/><path class="cls-59" d="M566.1,1021.84l-11.66,2.43a4.44,4.44,0,0,0-3.44,5.31l3.27,14.79a4.44,4.44,0,0,0,5.39,3.37l11.62-2.82c4.18-1,6.9-4.62,6.13-8.11l-2.25-10.21C574.38,1023.07,570.35,1021,566.1,1021.84Z"/><path class="cls-59" d="M519.4,1036.16l3.49,15.83a4.45,4.45,0,0,0,5.39,3.36l17.08-4.14a4.45,4.45,0,0,0,3.29-5.28l-3.36-15.27a4.45,4.45,0,0,0-5.25-3.39l-17.2,3.58A4.45,4.45,0,0,0,519.4,1036.16Z"/><path class="cls-59" d="M546.45,1059.53l-16,3.72a5,5,0,0,0-3.77,6l4,18.1a5,5,0,0,0,5.89,3.85l16.1-3.2a5,5,0,0,0,3.93-6l-4.11-18.62A5,5,0,0,0,546.45,1059.53Z"/><path class="cls-59" d="M367.54,1024.33l6.69-1.59a4,4,0,0,0,3-4.77l-2.92-13.24a4,4,0,0,0-5-3l-7,2c-4,1.13-6.55,4.63-5.8,8l1.74,7.9C359,1023.23,363.22,1025.35,367.54,1024.33Z"/><path class="cls-59" d="M515,1066.84l-15.72,3.66a5.3,5.3,0,0,0-4,6.31l3.7,16.79a5,5,0,0,0,5.89,3.85l16.1-3.2a5,5,0,0,0,3.93-6l-3.88-17.59A5,5,0,0,0,515,1066.84Z"/><path class="cls-59" d="M504.46,968.4,508.34,986a4.78,4.78,0,0,0,5.77,3.63l16.44-3.89a4.78,4.78,0,0,0,3.57-5.69l-4-18.27a4.79,4.79,0,0,0-6-3.57l-16.29,4.58A4.79,4.79,0,0,0,504.46,968.4Z"/><path class="cls-59" d="M512.24,1003.69l3.72,16.88a4.78,4.78,0,0,0,5.65,3.65l16.54-3.44a4.8,4.8,0,0,0,3.7-5.72L538,997.61a4.79,4.79,0,0,0-5.81-3.62l-16.41,4A4.79,4.79,0,0,0,512.24,1003.69Z"/><path class="cls-7" d="M357.26,989.92l2.1,5.35a3.74,3.74,0,0,0,4.29,2.29l.26-.06a3.73,3.73,0,0,0,2.85-4.46l-1.25-5.7a3.74,3.74,0,0,0-4.93-2.71l-1.11.4A3.75,3.75,0,0,0,357.26,989.92Z"/><path class="cls-7" d="M382.62,982.25l2.1,5.35a3.73,3.73,0,0,0,4.29,2.29l.26-.06a3.73,3.73,0,0,0,2.85-4.46l-1.26-5.7a3.74,3.74,0,0,0-4.93-2.71l-1.1.4A3.75,3.75,0,0,0,382.62,982.25Z"/><path class="cls-7" d="M414.35,975l2.1,5.36a3.75,3.75,0,0,0,4.29,2.29l.26-.06a3.74,3.74,0,0,0,2.85-4.46l-1.25-5.7a3.75,3.75,0,0,0-4.94-2.71l-1.1.4A3.74,3.74,0,0,0,414.35,975Z"/><path class="cls-7" d="M444.82,966.14l2.1,5.36a3.75,3.75,0,0,0,4.3,2.28l.26,0a3.75,3.75,0,0,0,2.85-4.46l-1.26-5.7a3.74,3.74,0,0,0-4.93-2.72l-1.11.41A3.74,3.74,0,0,0,444.82,966.14Z"/><path class="cls-7" d="M475.49,954.43l2.1,5.36a3.77,3.77,0,0,0,4.3,2.29l.26-.06a3.75,3.75,0,0,0,2.85-4.46l-1.26-5.7a3.73,3.73,0,0,0-4.93-2.71l-1.11.4A3.74,3.74,0,0,0,475.49,954.43Z"/><path class="cls-7" d="M509.19,947l2.1,5.36a3.75,3.75,0,0,0,4.29,2.29l.27-.06a3.76,3.76,0,0,0,2.85-4.46l-1.26-5.7a3.74,3.74,0,0,0-4.93-2.71l-1.11.4A3.73,3.73,0,0,0,509.19,947Z"/><path class="cls-7" d="M537.34,939.54l2.11,5.35a3.73,3.73,0,0,0,4.29,2.29l.26-.06a3.74,3.74,0,0,0,2.85-4.46l-1.26-5.7a3.74,3.74,0,0,0-4.93-2.71l-1.11.4A3.76,3.76,0,0,0,537.34,939.54Z"/><path class="cls-60" d="M507.67,1015.9a1.39,1.39,0,0,0-2.48-.44c-2.11,2.68-2.39,6.12-2.95,9.4-.66,3.82-1.24,7.66-1.65,11.51a100.05,100.05,0,0,0-.58,12.23,84.63,84.63,0,0,0-9.53-11.86c-1-1-2.7.16-2,1.41,4.1,7.29,8.66,14.29,12.65,21.65,1.4,2.59,5,1,4.67-1.72a91.17,91.17,0,0,1-.1-22.33c.39-3.56.93-7.1,1.53-10.63C507.77,1022,508.61,1019,507.67,1015.9Z"/><path class="cls-61" d="M512.65,1020.84a1.82,1.82,0,0,0-.19,3.63c15.19,2.71,21.12,19.29,13.71,32-3.43,5.88-8.62,11.06-13.61,15.64s-11,8.7-17.94,9.66c-16.1,2.24-22.13-13.24-20.43-26.73a45.44,45.44,0,0,1,19.89-31.77c1.39-.94.19-3.29-1.24-2.35a51.33,51.33,0,0,0-21.08,28.58c-3.09,10.78-3.08,24.93,6.29,32.72,9.69,8.06,23.61,4.87,33.06-1.77,10.4-7.3,22.68-19.15,24.31-32.4C537.12,1034.16,527.43,1020.05,512.65,1020.84Z"/><path class="cls-62" d="M470.21,1028.86c-.95-3.68-1.73-7.64-4-10.72-.77-1-2.22-.18-2.36.86-.44,3.39.69,6.82,1.46,10.11.37,1.58.93,3.31,1.42,5.07-3.08-5-7.34-11-13.54-12s-12.29,2.72-17.07,6.46c-11.22,8.79-18.35,21.52-28.42,31.43-6.06,6-15.41,11.67-22.18,3.31-4.8-5.92-5.46-15.42-4.75-22.71,1.37-14,9-26.89,20.08-35.47.8-.63-.18-2-1.05-1.48a49.57,49.57,0,0,0-21.38,32.3c-2.15,11-2.19,29.38,9.95,34.8,13.23,5.91,25.36-10.1,32.52-18.89,5.07-6.21,10-12.64,16-17.93,3.41-3,7.58-6.32,12.17-7.12,6.34-1.12,10.33,5.19,13,9.93,1.37,2.37,4.71,1.21,5.05-.85a21.26,21.26,0,0,1,.45,2.75c-4.82,1-10.49-1.93-14.89.87a.9.9,0,0,0,.14,1.63c4.89,1.59,12.86,3.6,17.83,1.8a2.63,2.63,0,0,0,2-2.32C472.93,1036.94,471.14,1032.46,470.21,1028.86Z"/><ellipse class="cls-63" cx="377.27" cy="679.85" rx="166.79" ry="151.29"/><ellipse class="cls-11" cx="377.27" cy="679.85" rx="161.24" ry="146.26"/><path class="cls-10" d="M228.63,674.65h-.12a2,2,0,0,1-1.85-2.08,124.7,124.7,0,0,1,2.2-17.23,2,2,0,1,1,3.86.77,123,123,0,0,0-2.13,16.69A2,2,0,0,1,228.63,674.65Z"/><path class="cls-10" d="M244.3,621.06a1.93,1.93,0,0,1-1-.25,2,2,0,0,1-.77-2.68c25.84-46.43,77.45-75.27,134.69-75.27a167.22,167.22,0,0,1,27.17,2.22,2,2,0,0,1-.64,3.89,162.8,162.8,0,0,0-26.53-2.17c-55.81,0-106.1,28.07-131.24,73.25A2,2,0,0,1,244.3,621.06Z"/><ellipse class="cls-64" cx="380.78" cy="683.03" rx="136.47" ry="123.79"/><path class="cls-65" d="M447.73,620.08H405.29v-48a8.39,8.39,0,0,1,6.78-8.25,60.26,60.26,0,0,1,23.67.11,8.37,8.37,0,0,1,6.57,7.28Z"/><path class="cls-66" d="M420.91,504.41a1.84,1.84,0,0,0-3.17.42c-2.53,6.22-8.54,20.68-13.21,28.85-6.06,10.61-2.92,26.93,19,24.25C455.61,554,428.74,514.88,420.91,504.41Z"/><g class="cls-67"><path class="cls-68" d="M420.69,523.89a1.12,1.12,0,0,0-1.94.26,176.34,176.34,0,0,1-8.05,17.59c-3.7,6.47-1.78,16.42,11.56,14.79C441.85,554.13,425.46,530.28,420.69,523.89Z"/></g><path class="cls-69" d="M418.93,551.11l1.39,16a1.89,1.89,0,0,0,1.8,1.73h.06a1.9,1.9,0,0,0,1.87-2.12C423.45,561.29,421.45,545.43,418.93,551.11Z"/><path class="cls-70" d="M294.35,624.12l42.4-2-2.25-47.91a8.37,8.37,0,0,0-7.16-7.92,60.22,60.22,0,0,0-23.64,1.21,8.35,8.35,0,0,0-6.21,7.58Z"/><path class="cls-71" d="M315.74,507.33a1.83,1.83,0,0,1,3.18.26c2.81,6.1,9.5,20.26,14.54,28.2,6.56,10.32,4.18,26.77-17.79,25.11C283.39,558.48,308.41,518.15,315.74,507.33Z"/><g class="cls-72"><path class="cls-73" d="M316.87,526.77a1.12,1.12,0,0,1,1.94.17,177.77,177.77,0,0,0,8.87,17.19c4,6.29,2.54,16.32-10.85,15.32C297.14,558,312.4,533.38,316.87,526.77Z"/></g><path class="cls-74" d="M319.89,553.88,319.25,570a1.88,1.88,0,0,1-1.72,1.82h0a1.9,1.9,0,0,1-2-2C315.85,564.26,317.11,548.32,319.89,553.88Z"/><path class="cls-75" d="M397.71,617.8H351.48l3.79-48a8.38,8.38,0,0,1,6.78-8.25,60.26,60.26,0,0,1,23.67.1,8.34,8.34,0,0,1,6.56,7.29Z"/><path class="cls-76" d="M370.89,502.14a1.84,1.84,0,0,0-3.18.41c-2.52,6.22-8.53,20.68-13.2,28.85-6.06,10.61-2.92,26.93,18.95,24.25C405.59,551.72,378.72,512.61,370.89,502.14Z"/><g class="cls-77"><path class="cls-78" d="M370.67,521.62a1.12,1.12,0,0,0-1.94.25,175.31,175.31,0,0,1-8.05,17.59c-3.7,6.47-1.78,16.43,11.55,14.79C391.83,551.85,375.44,528,370.67,521.62Z"/></g><path class="cls-79" d="M368.91,548.83l1.39,16a1.89,1.89,0,0,0,1.8,1.74h.06a1.89,1.89,0,0,0,1.87-2.11C373.43,559,371.43,543.15,368.91,548.83Z"/><path class="cls-80" d="M244.74,762.31l.55-112.7A25.49,25.49,0,0,1,261,626.18c31.42-13,109-35.25,222.33-2.2a25.52,25.52,0,0,1,18.26,22.13L512,757.73a24.1,24.1,0,0,1-23.73,26.34l-219.15,2.47A24.11,24.11,0,0,1,244.74,762.31Z"/><path class="cls-81" d="M255.23,674.64c10-2.63,9.79-27.28,15.15-27.28,14.4,0-1.55,48.25,19.71,45.47,17.43-2.27,1-37.05,15.16-42.44C311.44,648,320.34,652,325,658c12.3,16-9.91,41.48.76,53.81,7.49,8.66,28.4,7.62,34.86-1.51,9-12.73-14.62-34.64-5.3-48.51,6.23-9.28,24.56-11,30.31-4.55,6.72,7.55-6.54,23,.76,31.83,5.32,6.41,19.34,6.6,24.25.76,6.19-7.35-4.36-21.55,1.52-26.52,3.46-2.94,10.45-.82,14.4,2.27,7.33,5.74-2.24,18.13,3.79,25,4.33,4.94,14.57,5.74,18.95,1.52,7.13-6.89-3.39-25.08,1.51-28.05,3.07-1.85,11,3,15.92,9.86,12,16.66.64,37.19,9.85,43.2,4.62,3,13.06,1.49,17.43-3,12.92-13.38-12.39-50.29-3-57.6,1.5-1.16,4.25-1.86,9.84.21a5,5,0,0,0,6.67-5.11l-.55-5.93a30.9,30.9,0,0,0-22.21-26.77C445,607.28,406,601.41,368.78,601.41c-51.09,0-87.93,10.81-109.83,19.89a30.67,30.67,0,0,0-19,28.29l-.05,9.31a16.3,16.3,0,0,0,9.17,14.89A8.92,8.92,0,0,0,255.23,674.64Z"/><ellipse class="cls-82" cx="672.88" cy="443.35" rx="166.79" ry="151.29"/><ellipse class="cls-11" cx="672.88" cy="443.35" rx="161.24" ry="146.26"/><path class="cls-7" d="M524.24,438.16h-.11a2,2,0,0,1-1.86-2.08,127.63,127.63,0,0,1,2.2-17.23,2,2,0,0,1,3.87.76,121.68,121.68,0,0,0-2.13,16.69A2,2,0,0,1,524.24,438.16Z"/><path class="cls-10" d="M539.92,384.57a2,2,0,0,1-1-.25,2,2,0,0,1-.76-2.68c25.84-46.43,77.45-75.27,134.68-75.27a166.23,166.23,0,0,1,27.18,2.22,2,2,0,1,1-.65,3.88,163.83,163.83,0,0,0-26.53-2.16c-55.81,0-106.09,28.07-131.23,73.24A2,2,0,0,1,539.92,384.57Z"/><ellipse class="cls-83" cx="676.4" cy="446.54" rx="136.47" ry="123.79"/><circle class="cls-84" cx="781.36" cy="475.41" r="75.99" transform="translate(6.7 961.67) rotate(-63.43)"/><circle class="cls-85" cx="781.36" cy="475.41" r="73.46" transform="translate(-107.31 691.75) rotate(-45)"/><path class="cls-86" d="M720.78,446.87a2,2,0,0,1-.89-.21A2,2,0,0,1,719,444a69.49,69.49,0,0,1,62.34-38.38A70.52,70.52,0,0,1,794,406.76a2,2,0,0,1-.71,3.88,66.36,66.36,0,0,0-11.88-1.07,65.58,65.58,0,0,0-58.82,36.21A2,2,0,0,1,720.78,446.87Z"/><circle class="cls-86" cx="782.96" cy="477.01" r="62.18" transform="translate(138.82 1129.43) rotate(-76.72)"/><path class="cls-87" d="M776.86,523.24v-6.77a55.07,55.07,0,0,1-19-4.11,3.93,3.93,0,0,1-2.17-4.62l1.72-6.31a4,4,0,0,1,5.36-2.58,45.77,45.77,0,0,0,17.52,3.69c6.79,0,11.86-2.3,11.86-7,0-4.26-3.91-6.79-13.35-9.32-13.47-3.69-23.14-9.56-23.14-21.42,0-10.7,7.82-18.88,21.41-21.06V437A3.93,3.93,0,0,1,781,433h4A3.94,3.94,0,0,1,789,437V443a50.37,50.37,0,0,1,15,2.71,3.91,3.91,0,0,1,2.45,4.73l-1.58,5.83a3.92,3.92,0,0,1-5.19,2.65,41,41,0,0,0-14.75-2.68c-8.06,0-10.36,3.34-10.36,6.34,0,3.68,4.83,6.21,15.31,9.44,15,4.49,21.18,10.7,21.18,21.87,0,10.25-7.6,19.46-22.33,21.76v7.57a3.94,3.94,0,0,1-3.94,3.94h-4A3.93,3.93,0,0,1,776.86,523.24Z"/><circle class="cls-88" cx="707.41" cy="475.41" r="75.99" transform="translate(-2.53 947.04) rotate(-67.5)"/><circle class="cls-89" cx="707.41" cy="475.41" r="73.46" transform="translate(-128.97 639.46) rotate(-45)"/><path class="cls-86" d="M646.83,446.87a2,2,0,0,1-.89-.21,2,2,0,0,1-.87-2.65,69.49,69.49,0,0,1,62.34-38.38A70.52,70.52,0,0,1,720,406.76a2,2,0,1,1-.71,3.88,66.28,66.28,0,0,0-11.88-1.07,65.59,65.59,0,0,0-58.82,36.21A2,2,0,0,1,646.83,446.87Z"/><circle class="cls-86" cx="709.01" cy="477.01" r="62.18" transform="translate(81.86 1057.46) rotate(-76.72)"/><path class="cls-90" d="M702.91,523.24v-6.77a55.07,55.07,0,0,1-19-4.11,3.91,3.91,0,0,1-2.16-4.62l1.72-6.31a3.94,3.94,0,0,1,5.35-2.58,45.77,45.77,0,0,0,17.52,3.69c6.8,0,11.86-2.3,11.86-7,0-4.26-3.91-6.79-13.35-9.32-13.47-3.69-23.14-9.56-23.14-21.42,0-10.7,7.83-18.88,21.41-21.06V437a3.94,3.94,0,0,1,3.94-3.94h4A3.94,3.94,0,0,1,715,437V443a50.37,50.37,0,0,1,15,2.71,3.9,3.9,0,0,1,2.45,4.73l-1.58,5.83a3.91,3.91,0,0,1-5.18,2.65A41.11,41.11,0,0,0,711,456.26c-8.06,0-10.36,3.34-10.36,6.34,0,3.68,4.83,6.21,15.31,9.44,15,4.49,21.18,10.7,21.18,21.87,0,10.25-7.59,19.46-22.33,21.76v7.57a3.94,3.94,0,0,1-3.94,3.94h-4A3.94,3.94,0,0,1,702.91,523.24Z"/><circle class="cls-91" cx="595.67" cy="429.84" r="121.57" transform="translate(-129.47 547.1) rotate(-45)"/><circle class="cls-92" cx="595.67" cy="429.84" r="117.53" transform="translate(-129.47 547.1) rotate(-45)"/><path class="cls-86" d="M498.76,383a1.92,1.92,0,0,1-.89-.22,2,2,0,0,1-.87-2.64,110,110,0,0,1,98.67-60.76,111.5,111.5,0,0,1,19.93,1.8,2,2,0,0,1,1.58,2.29,2,2,0,0,1-2.29,1.59,107.26,107.26,0,0,0-19.22-1.73,106.08,106.08,0,0,0-95.15,58.58A2,2,0,0,1,498.76,383Z"/><circle class="cls-86" cx="598.23" cy="432.4" r="99.47" transform="translate(60.51 938.07) rotate(-79.1)"/><path class="cls-93" d="M588.47,506.35V495.52a88.15,88.15,0,0,1-30.36-6.58,6.26,6.26,0,0,1-3.46-7.4l2.75-10.08a6.3,6.3,0,0,1,8.56-4.12,73.38,73.38,0,0,0,28,5.9c10.86,0,19-3.69,19-11.24,0-6.81-6.26-10.86-21.37-14.91-21.54-5.9-37-15.29-37-34.26,0-17.13,12.53-30.21,34.26-33.7V368.3a6.3,6.3,0,0,1,6.31-6.3h6.35a6.3,6.3,0,0,1,6.31,6.3V378a80.51,80.51,0,0,1,24.07,4.32,6.28,6.28,0,0,1,3.92,7.58l-2.53,9.32a6.3,6.3,0,0,1-8.3,4.25,65.62,65.62,0,0,0-23.61-4.29c-12.89,0-16.57,5.34-16.57,10.13,0,5.89,7.73,9.94,24.49,15.1,24,7.18,33.89,17.13,33.89,35,0,16.4-12.15,31.13-35.73,34.81v12.12a6.3,6.3,0,0,1-6.3,6.3h-6.36A6.31,6.31,0,0,1,588.47,506.35Z"/><ellipse class="cls-94" cx="659.09" cy="1320.35" rx="166.79" ry="151.29"/><ellipse class="cls-11" cx="659.09" cy="1320.35" rx="161.24" ry="146.26"/><path class="cls-10" d="M510.45,1315.15h-.12a2,2,0,0,1-1.85-2.08,124.7,124.7,0,0,1,2.2-17.23,2,2,0,1,1,3.86.77,121.46,121.46,0,0,0-2.12,16.69A2,2,0,0,1,510.45,1315.15Z"/><path class="cls-10" d="M526.13,1261.56a1.94,1.94,0,0,1-1-.25,2,2,0,0,1-.76-2.68c25.83-46.43,77.44-75.27,134.68-75.27a167.31,167.31,0,0,1,27.17,2.22,2,2,0,1,1-.64,3.89,162.8,162.8,0,0,0-26.53-2.17c-55.81,0-106.1,28.07-131.24,73.25A2,2,0,0,1,526.13,1261.56Z"/><ellipse class="cls-95" cx="662.6" cy="1323.54" rx="136.47" ry="123.79"/><path class="cls-96" d="M768.8,1251.57c0,48.2-71.13,141.15-97.42,173.86a12.34,12.34,0,0,1-19.24,0c-26.29-32.71-97.43-125.66-97.43-173.86a107,107,0,0,1,214.09,0Z"/><path class="cls-97" d="M765.24,1251.57c0,46.83-69.46,139.11-94.56,170.94a11.36,11.36,0,0,1-17.84,0c-25.11-31.83-94.57-124.11-94.57-170.94a103.49,103.49,0,0,1,207,0Z"/><path class="cls-98" d="M576.42,1210.56a1.88,1.88,0,0,1-.88-.22,2,2,0,0,1-.87-2.64,97.07,97.07,0,0,1,87.09-53.63,98.36,98.36,0,0,1,17.59,1.59,2,2,0,0,1-.71,3.87,95.12,95.12,0,0,0-16.88-1.51,93.18,93.18,0,0,0-83.58,51.45A2,2,0,0,1,576.42,1210.56Z"/><circle class="cls-99" cx="664.85" cy="1255.68" r="74.93" transform="translate(-740.11 1467.41) rotate(-70.67)"/><path class="cls-11" d="M835.36,800.17a1.9,1.9,0,0,1-.9-.22l-.43-.22a2,2,0,1,1,1.8-3.51l.43.23a2,2,0,0,1-.9,3.72Zm-12.5-6.9a1.92,1.92,0,0,1-1-.28q-2.57-1.51-5.09-3.11a2,2,0,1,1,2.1-3.33c1.65,1,3.32,2.05,5,3.05a2,2,0,0,1-1,3.67Zm-16.5-10.76a2,2,0,0,1-1.15-.37c-1.61-1.15-3.22-2.33-4.81-3.52a2,2,0,0,1,2.37-3.15c1.56,1.17,3.14,2.33,4.73,3.46a2,2,0,0,1-1.14,3.58ZM790.8,770.42a2,2,0,0,1-1.27-.46q-2.28-1.94-4.51-3.9a2,2,0,0,1,2.62-2.95q2.19,1.93,4.43,3.83a2,2,0,0,1-1.27,3.48Zm-14.53-13.31a2,2,0,0,1-1.39-.57c-1.41-1.39-2.8-2.81-4.18-4.24a2,2,0,0,1,2.84-2.74c1.36,1.41,2.73,2.81,4.12,4.18a2,2,0,0,1-1.39,3.37ZM762.84,742.7a1.94,1.94,0,0,1-1.49-.69q-2-2.25-3.84-4.56a2,2,0,0,1,3-2.5q1.86,2.26,3.78,4.49a2,2,0,0,1-1.5,3.26Zm-12.26-15.43a2,2,0,0,1-1.59-.8c-1.17-1.61-2.33-3.22-3.46-4.85a2,2,0,0,1,3.23-2.26c1.12,1.61,2.25,3.2,3.41,4.78a2,2,0,0,1-1.59,3.13Zm-11-16.33a2,2,0,0,1-1.67-.93q-1.57-2.53-3.08-5.11a2,2,0,0,1,3.4-2c1,1.68,2,3.36,3,5a2,2,0,0,1-1.68,3Zm-9.71-17.14a2,2,0,0,1-1.75-1.07c-.91-1.77-1.8-3.54-2.67-5.33a2,2,0,1,1,3.54-1.72c.86,1.76,1.73,3.5,2.63,5.24a2,2,0,0,1-1.75,2.88Zm-8.33-17.86a2,2,0,0,1-1.82-1.21q-1.16-2.75-2.24-5.52a2,2,0,1,1,3.67-1.43c.71,1.82,1.45,3.63,2.2,5.43a2,2,0,0,1-1.05,2.58A2.06,2.06,0,0,1,721.52,675.94Zm-6.88-18.46a2,2,0,0,1-1.88-1.36c-.62-1.88-1.21-3.78-1.78-5.68a2,2,0,1,1,3.77-1.14c.57,1.88,1.15,3.74,1.76,5.6a2,2,0,0,1-1.26,2.48A1.9,1.9,0,0,1,714.64,657.48Zm-5.36-19a2,2,0,0,1-1.91-1.51q-.69-2.91-1.31-5.82a2,2,0,0,1,3.86-.82c.4,1.92.83,3.82,1.28,5.72a2,2,0,0,1-1.46,2.38A2.4,2.4,0,0,1,709.28,638.52Zm-3.74-19.34a2,2,0,0,1-1.95-1.68q-.44-3-.81-5.91a2,2,0,0,1,3.92-.48c.24,1.94.5,3.87.79,5.81a2,2,0,0,1-1.66,2.24Z"/><path class="cls-11" d="M768.83,1178.88a2,2,0,0,1-1.66-3c1.07-1.69,2.2-3.37,3.34-5a2,2,0,1,1,3.22,2.27c-1.1,1.57-2.19,3.2-3.23,4.83A2,2,0,0,1,768.83,1178.88Zm11.84-15.73a2,2,0,0,1-1.48-3.27c1.31-1.49,2.68-3,4.07-4.41a2,2,0,0,1,2.83,2.73c-1.34,1.4-2.67,2.84-3.94,4.28A2,2,0,0,1,780.67,1163.15Zm14.09-13.75a1.94,1.94,0,0,1-1.51-.71,2,2,0,0,1,.24-2.77c1.52-1.28,3.1-2.54,4.68-3.76a2,2,0,0,1,2.4,3.13c-1.55,1.18-3.06,2.4-4.55,3.64A2,2,0,0,1,794.76,1149.4Zm16-11.52a2,2,0,0,1-1-3.65c1.69-1,3.43-2,5.18-3a2,2,0,0,1,1.91,3.45c-1.7.94-3.39,1.92-5,2.93A1.94,1.94,0,0,1,810.73,1137.88Zm17.5-9a2,2,0,0,1-1.81-1.2,2,2,0,0,1,1-2.59c1.82-.77,3.7-1.52,5.58-2.21a2,2,0,0,1,1.37,3.69c-1.82.68-3.64,1.4-5.41,2.15A1.9,1.9,0,0,1,828.23,1128.86Zm18.66-6.28a2,2,0,0,1-.48-3.88c2-.49,3.92-.94,5.85-1.33a2,2,0,0,1,.78,3.87c-1.87.37-3.78.81-5.67,1.28A2,2,0,0,1,846.89,1122.58Z"/><path class="cls-11" d="M643.44,989.84a2,2,0,0,1-.05-3.94l5.91-.14a2,2,0,0,1,.1,3.94l-5.92.14Zm19.7-.47a2,2,0,0,1,0-3.94l5.91-.14a2,2,0,0,1,2,1.92,2,2,0,0,1-1.92,2l-5.91.14Zm19.7-.47a2,2,0,0,1,0-3.94l5.9-.14a2,2,0,1,1,.1,3.94l-5.91.14Zm19.7-.47a2,2,0,0,1,0-3.94l5.91-.14a2,2,0,1,1,.09,3.94l-5.91.14Zm19.71-.47a2,2,0,0,1,0-3.94l5.91-.14a2,2,0,0,1,2,1.92,2,2,0,0,1-1.93,2l-5.91.14Zm19.7-.47a2,2,0,0,1-.05-3.94l5.91-.14a2,2,0,0,1,2,1.92,2,2,0,0,1-1.92,2l-5.92.14Zm19.7-.47a2,2,0,0,1,0-3.94l5.91-.14a2,2,0,1,1,.1,3.94l-5.91.14Zm19.7-.47a2,2,0,0,1,0-3.94l5.91-.14a2,2,0,0,1,.09,3.94l-5.91.14Zm19.7-.47a2,2,0,0,1,0-3.94l5.91-.14a2,2,0,1,1,.09,3.94l-5.91.14Zm19.71-.47a2,2,0,0,1,0-3.94l5.91-.14a2,2,0,0,1,2,1.92,2,2,0,0,1-1.92,2l-5.92.14Z"/><path class="cls-11" d="M822.65,894.13h-.13c-2-.12-3.94-.26-5.91-.4a2,2,0,1,1,.28-3.93l5.88.4a2,2,0,0,1-.12,3.93ZM803,892.62h-.18l-5.91-.57a2,2,0,0,1,.4-3.92l5.87.56a2,2,0,0,1-.18,3.94Zm-19.6-2.12h-.24c-2-.25-3.93-.5-5.89-.77a2,2,0,0,1,.54-3.91c1.94.27,3.89.52,5.84.77a2,2,0,0,1-.25,3.92Zm-19.5-2.79a1.73,1.73,0,0,1-.32,0l-5.85-1a2,2,0,1,1,.68-3.88c1.93.34,3.87.66,5.8,1a2,2,0,0,1-.31,3.92Zm-19.38-3.57a1.81,1.81,0,0,1-.4,0q-2.91-.6-5.81-1.23a2,2,0,1,1,.85-3.85q2.87.63,5.75,1.22a2,2,0,0,1-.39,3.9Zm-19.21-4.41a1.69,1.69,0,0,1-.49-.06c-1.91-.49-3.83-1-5.74-1.5a2,2,0,1,1,1-3.81q2.83.76,5.69,1.49a2,2,0,0,1-.49,3.88Zm-19-5.34a2,2,0,0,1-.59-.09q-2.84-.87-5.66-1.8a2,2,0,1,1,1.23-3.75q2.79.91,5.6,1.79a2,2,0,0,1-.58,3.85ZM687.69,868a2.09,2.09,0,0,1-.69-.12c-1.85-.69-3.71-1.4-5.55-2.13a2,2,0,1,1,1.44-3.66q2.73,1.07,5.49,2.09a2,2,0,0,1-.69,3.82Zm-18.25-7.43a1.89,1.89,0,0,1-.8-.17c-1.82-.8-3.62-1.62-5.42-2.46a2,2,0,0,1,1.67-3.58c1.77.83,3.56,1.65,5.35,2.44a2,2,0,0,1-.8,3.77ZM651.69,852a2,2,0,0,1-.91-.22q-2.64-1.39-5.24-2.82a2,2,0,1,1,1.9-3.46q2.58,1.43,5.17,2.79a2,2,0,0,1-.92,3.71Zm-17.12-9.75a1.94,1.94,0,0,1-1-.29q-2.53-1.56-5-3.18a2,2,0,0,1,2.14-3.31c1.65,1.06,3.3,2.1,5,3.13a2,2,0,0,1-1,3.65Zm-16.39-10.93A1.91,1.91,0,0,1,617,831q-2.41-1.74-4.79-3.54a2,2,0,0,1,2.38-3.14q2.34,1.77,4.72,3.49a2,2,0,0,1-1.16,3.57Zm-15.52-12.14a1.93,1.93,0,0,1-1.27-.47q-2.28-1.92-4.5-3.9a2,2,0,0,1,2.62-3q2.19,2,4.43,3.85a2,2,0,0,1-1.28,3.47Zm-14.5-13.33a1.94,1.94,0,0,1-1.39-.58c-1.41-1.4-2.79-2.83-4.16-4.27a2,2,0,0,1,2.85-2.71c1.35,1.41,2.71,2.81,4.1,4.2a2,2,0,0,1-1.4,3.36Zm-13.31-14.52a2,2,0,0,1-1.51-.7q-1.92-2.29-3.77-4.63a2,2,0,0,1,3.09-2.45c1.21,1.53,2.44,3,3.7,4.54a2,2,0,0,1-1.51,3.24Zm-11.94-15.67a2,2,0,0,1-1.63-.85c-1.13-1.64-2.23-3.29-3.32-5a2,2,0,0,1,3.31-2.15c1.06,1.64,2.15,3.27,3.26,4.87a2,2,0,0,1-1.62,3.09Z"/><path class="cls-7" d="M1847.78,874.46a2,2,0,0,1,0-4c2,0,3.9,0,5.85-.13a2,2,0,0,1,.15,3.94c-2,.08-4,.12-6,.14Zm19.66-1.19a2,2,0,0,1-.22-3.93c1.94-.22,3.87-.48,5.8-.76a2,2,0,1,1,.57,3.9q-3,.43-5.92.77Zm19.43-3.27a2,2,0,0,1-.43-3.9c1.91-.42,3.8-.87,5.69-1.35a2,2,0,1,1,1,3.82q-2.89.73-5.81,1.38A2.18,2.18,0,0,1,1886.87,870Zm19-5.25a2,2,0,0,1-.62-3.84c1.85-.61,3.69-1.26,5.52-1.93a2,2,0,0,1,1.36,3.7q-2.8,1-5.64,2A2,2,0,0,1,1905.86,864.75Zm18.36-7.14a2,2,0,0,1-.81-3.77q2.67-1.2,5.3-2.48a2,2,0,1,1,1.72,3.55q-2.68,1.3-5.41,2.52A1.9,1.9,0,0,1,1924.22,857.61Zm17.54-9a2,2,0,0,1-1-3.68c1.69-1,3.37-2,5-3a2,2,0,1,1,2.08,3.36q-2.55,1.56-5.14,3.06A2,2,0,0,1,1941.76,848.65ZM1958.31,838a2,2,0,0,1-1.16-3.57c1.59-1.14,3.15-2.31,4.7-3.5a2,2,0,0,1,2.4,3.13c-1.58,1.21-3.17,2.4-4.79,3.57A2,2,0,0,1,1958.31,838Zm15.36-12.34a1.94,1.94,0,0,1-1.47-.66,2,2,0,0,1,.15-2.78q2.19-1.95,4.3-4a2,2,0,1,1,2.72,2.85c-1.44,1.37-2.91,2.72-4.39,4A2,2,0,0,1,1973.67,825.62Zm14-13.89a2,2,0,0,1-1.46-3.29q1.95-2.18,3.84-4.41a2,2,0,0,1,3,2.54q-1.92,2.29-3.93,4.51A2,2,0,0,1,1987.63,811.73ZM2000,796.4a1.94,1.94,0,0,1-1.14-.37,2,2,0,0,1-.45-2.76c1.13-1.58,2.25-3.18,3.33-4.8a2,2,0,0,1,3.28,2.2q-1.66,2.48-3.41,4.91A2,2,0,0,1,2000,796.4Zm10.63-16.59a1.88,1.88,0,0,1-1-.26,2,2,0,0,1-.74-2.68q1.44-2.55,2.8-5.14a2,2,0,0,1,3.49,1.84c-.93,1.76-1.88,3.51-2.87,5.24A2,2,0,0,1,2010.62,779.81Zm8.82-17.62a2,2,0,0,1-1.81-2.76c.78-1.78,1.54-3.58,2.26-5.39a2,2,0,1,1,3.66,1.46q-1.11,2.78-2.31,5.51A2,2,0,0,1,2019.44,762.19Zm7-18.42a1.8,1.8,0,0,1-.6-.1,2,2,0,0,1-1.28-2.48c.59-1.86,1.16-3.72,1.7-5.6a2,2,0,1,1,3.79,1.09c-.55,1.92-1.13,3.82-1.74,5.72A2,2,0,0,1,2026.4,743.77Zm5.06-19a2,2,0,0,1-.42-.05,2,2,0,0,1-1.51-2.33q.6-2.86,1.13-5.75a2,2,0,0,1,3.88.71c-.36,2-.74,3.91-1.16,5.86A2,2,0,0,1,2031.46,724.73Zm3.12-19.45-.22,0a2,2,0,0,1-1.75-2.17q.33-2.91.55-5.82a2,2,0,1,1,3.93.3c-.16,2-.34,4-.56,5.95A2,2,0,0,1,2034.58,705.28Zm1.12-19.67h0a2,2,0,0,1-2-2v-1.11q0-2.37-.06-4.74a2,2,0,0,1,1.92-2,1.94,1.94,0,0,1,2,1.92c.05,1.61.07,3.23.06,4.84v1.13A2,2,0,0,1,2035.7,685.61Zm-.91-19.68a2,2,0,0,1-2-1.77c-.19-1.94-.42-3.88-.67-5.81a2,2,0,1,1,3.9-.52q.39,3,.69,5.94a2,2,0,0,1-1.77,2.15Zm-3-19.47a2,2,0,0,1-1.93-1.56q-.6-2.86-1.3-5.7a2,2,0,1,1,3.83-.94c.48,1.93.92,3.88,1.33,5.83a2,2,0,0,1-1.93,2.37Z"/></g></svg>